<svg width="221" height="115" viewBox="0 0 221 115" fill="none" xmlns="http://www.w3.org/2000/svg">
<ellipse cx="87.9239" cy="22.8631" rx="21.7225" ry="22.3628" fill="#00683E"/>
<path d="M103.44 60.1323C103.44 70.6624 100.407 80.956 94.724 89.7115C89.0409 98.4669 80.9633 105.291 71.5127 109.321C62.0621 113.35 51.6629 114.405 41.6301 112.35C31.5974 110.296 22.3817 105.225 15.1485 97.7794C7.9153 90.3335 2.98943 80.8469 0.99379 70.5191C-1.00185 60.1913 0.0223864 49.4863 3.93697 39.7578C7.85155 30.0292 14.4807 21.7141 22.986 15.8639C31.4914 10.0137 41.4909 6.89111 51.7202 6.89111V30.3255C45.9934 30.3255 40.3952 32.0736 35.6335 35.3488C30.8718 38.624 27.1606 43.2792 24.969 48.7257C22.7774 54.1722 22.204 60.1653 23.3213 65.9473C24.4385 71.7292 27.1962 77.0403 31.2457 81.2089C35.2952 85.3774 40.4545 88.2162 46.0713 89.3663C51.6881 90.5165 57.5101 89.9262 62.801 87.6702C68.0919 85.4142 72.6141 81.5938 75.7957 76.692C78.9774 71.7903 80.6756 66.0275 80.6756 60.1323H103.44Z" fill="white"/>
<rect x="66.2014" y="60.1316" width="21.7225" height="15.9723" fill="white"/>
<path d="M220.755 61.2587C220.755 90.663 197.599 114.5 169.035 114.5C140.47 114.5 117.314 90.663 117.314 61.2587C117.314 31.8545 140.47 8.01758 169.035 8.01758C197.599 8.01758 220.755 31.8545 220.755 61.2587ZM140.079 61.2587C140.079 77.7206 153.043 91.0655 169.035 91.0655C185.026 91.0655 197.99 77.7206 197.99 61.2587C197.99 44.7969 185.026 31.4519 169.035 31.4519C153.043 31.4519 140.079 44.7969 140.079 61.2587Z" fill="white"/>
</svg>
