<svg width="41" height="40" viewBox="0 0 41 40" fill="none" xmlns="http://www.w3.org/2000/svg">
<rect x="0.856934" y="0.5" width="39" height="39" rx="3.5" fill="#007646" stroke="white"/>
<path fill-rule="evenodd" clip-rule="evenodd" d="M19.8569 22L18.1069 22.5V21.75L19.1069 21V18.5L15.8569 19.5V18.5L19.1069 16.5V14.3C19.1076 14.1 19.1786 13.9167 19.3199 13.75C19.4613 13.5833 19.6403 13.5 19.8569 13.5C20.0569 13.5 20.2319 13.5833 20.3819 13.75C20.5319 13.9167 20.6069 14.1 20.6069 14.3V16.5L23.8569 18.5V19.5L20.6069 18.5V21L21.6069 21.75V22.5L19.8569 22ZM13.8449 23.638C15.1696 25.596 17.1736 27.7167 19.8569 30C22.5409 27.7173 24.5453 25.5967 25.8699 23.638C27.1946 21.6793 27.8569 19.8667 27.8569 18.2C27.8583 15.7 27.0543 13.7083 25.4449 12.225C23.8356 10.7417 21.9729 10 19.8569 10C17.7409 10 15.8786 10.7417 14.2699 12.225C12.6613 13.7083 11.8569 15.7 11.8569 18.2C11.8576 19.8673 12.5203 21.68 13.8449 23.638Z" fill="#B0FFDF"/>
<path d="M18.1069 22.5L19.8569 22L21.6069 22.5V21.75L20.6069 21V18.5L23.8569 19.5V18.5L20.6069 16.5V14.3C20.6069 14.1 20.5319 13.9167 20.3819 13.75C20.2319 13.5833 20.0569 13.5 19.8569 13.5C19.6403 13.5 19.4613 13.5833 19.3199 13.75C19.1786 13.9167 19.1076 14.1 19.1069 14.3V16.5L15.8569 18.5V19.5L19.1069 18.5V21L18.1069 21.75V22.5Z" fill="#00EA8A"/>
</svg>
