<svg width="49" height="48" viewBox="0 0 49 48" fill="none" xmlns="http://www.w3.org/2000/svg">
<path d="M1.78585 24C1.78585 11.2186 12.1473 0.857143 24.9287 0.857143C37.7102 0.857143 48.0716 11.2186 48.0716 24C48.0716 36.7814 37.7102 47.1429 24.9287 47.1429C12.1473 47.1429 1.78585 36.7814 1.78585 24Z" fill="white"/>
<path d="M1.78585 24C1.78585 11.2186 12.1473 0.857143 24.9287 0.857143C37.7102 0.857143 48.0716 11.2186 48.0716 24C48.0716 36.7814 37.7102 47.1429 24.9287 47.1429C12.1473 47.1429 1.78585 36.7814 1.78585 24Z" stroke="#E2E8F0" stroke-width="1.71429"/>
<path d="M25.4042 18.4616C26.3327 18.4616 27.4966 17.8339 28.1898 16.9969C28.8175 16.2384 29.2752 15.1791 29.2752 14.1198C29.2752 13.9759 29.2621 13.8321 29.236 13.7144C28.2028 13.7536 26.9604 14.4075 26.215 15.2837C25.6265 15.9507 25.0903 16.9969 25.0903 18.0693C25.0903 18.2262 25.1165 18.3831 25.1295 18.4355C25.1949 18.4485 25.2996 18.4616 25.4042 18.4616ZM22.1347 34.2858C23.4033 34.2858 23.9656 33.4357 25.548 33.4357C27.1566 33.4357 27.5097 34.2596 28.9221 34.2596C30.3084 34.2596 31.2369 32.978 32.1131 31.7225C33.0939 30.284 33.4994 28.8716 33.5255 28.8062C33.434 28.78 30.7792 27.6946 30.7792 24.6474C30.7792 22.0057 32.8716 20.8156 32.9893 20.7241C31.6031 18.7362 29.4975 18.6839 28.9221 18.6839C27.3659 18.6839 26.0973 19.6255 25.2996 19.6255C24.4364 19.6255 23.2986 18.7362 21.9516 18.7362C19.3884 18.7362 16.7859 20.8549 16.7859 24.8567C16.7859 27.3415 17.7536 29.9701 18.9437 31.6702C19.9638 33.1088 20.8531 34.2858 22.1347 34.2858Z" fill="black"/>
</svg>
