<svg width="41" height="40" viewBox="0 0 41 40" fill="none" xmlns="http://www.w3.org/2000/svg">
<g clip-path="url(#clip0_120_1594)">
<rect x="0.5" width="40" height="40" rx="6.4" fill="white"/>
<path fill-rule="evenodd" clip-rule="evenodd" d="M26.2547 9.29492H14.7422V39.9999H26.2547V39.9999H37.7659V24.887H26.2547V9.29492ZM3.22852 19.1671H14.741V40H3.22852V19.1671Z" fill="url(#paint0_linear_120_1594)"/>
<rect x="19.499" y="12.7998" width="0.8" height="0.8" fill="#D9D9D9"/>
<rect x="20.6987" y="12.7998" width="0.8" height="0.8" fill="#D9D9D9"/>
<rect x="19.499" y="14" width="0.8" height="0.8" fill="#D9D9D9"/>
<rect x="20.6987" y="14" width="0.8" height="0.8" fill="#D9D9D9"/>
<rect x="19.499" y="16.7998" width="0.8" height="0.8" fill="#D9D9D9"/>
<rect x="20.6987" y="16.7998" width="0.8" height="0.8" fill="#D9D9D9"/>
<rect x="19.499" y="18" width="0.8" height="0.8" fill="#D9D9D9"/>
<rect x="20.6987" y="18" width="0.8" height="0.8" fill="#D9D9D9"/>
<rect x="19.499" y="20.7998" width="0.8" height="0.8" fill="#D9D9D9"/>
<rect x="20.6987" y="20.7998" width="0.8" height="0.8" fill="#D9D9D9"/>
<rect x="19.499" y="22" width="0.8" height="0.8" fill="#D9D9D9"/>
<rect x="20.6987" y="22" width="0.8" height="0.8" fill="#D9D9D9"/>
<rect x="8.70068" y="24.7998" width="0.8" height="0.8" fill="#D9D9D9"/>
<rect x="9.90039" y="24.7998" width="0.8" height="0.8" fill="#D9D9D9"/>
<rect x="8.70068" y="26" width="0.8" height="0.8" fill="#D9D9D9"/>
<rect x="9.90039" y="26" width="0.8" height="0.8" fill="#D9D9D9"/>
<rect x="8.70068" y="28.7998" width="0.8" height="0.8" fill="#D9D9D9"/>
<rect x="9.90039" y="28.7998" width="0.8" height="0.8" fill="#D9D9D9"/>
<rect x="8.70068" y="30" width="0.8" height="0.8" fill="#D9D9D9"/>
<rect x="9.90039" y="30" width="0.8" height="0.8" fill="#D9D9D9"/>
<rect x="8.70068" y="32.7998" width="0.8" height="0.8" fill="#D9D9D9"/>
<rect x="9.90039" y="32.7998" width="0.8" height="0.8" fill="#D9D9D9"/>
<rect x="8.70068" y="34" width="0.8" height="0.8" fill="#D9D9D9"/>
<rect x="9.90039" y="34" width="0.8" height="0.8" fill="#D9D9D9"/>
<rect x="30.7002" y="32.7998" width="0.8" height="0.8" fill="#D9D9D9"/>
<rect x="31.8999" y="32.7998" width="0.8" height="0.8" fill="#D9D9D9"/>
<rect x="30.7002" y="34" width="0.8" height="0.8" fill="#D9D9D9"/>
<rect x="31.8999" y="34" width="0.8" height="0.8" fill="#D9D9D9"/>
<rect x="30.7002" y="28.7998" width="0.8" height="0.8" fill="#D9D9D9"/>
<rect x="31.8999" y="28.7998" width="0.8" height="0.8" fill="#D9D9D9"/>
<rect x="30.7002" y="30" width="0.8" height="0.8" fill="#D9D9D9"/>
<rect x="31.8999" y="30" width="0.8" height="0.8" fill="#D9D9D9"/>
<rect x="19.499" y="24.7998" width="0.8" height="0.8" fill="#D9D9D9"/>
<rect x="20.6987" y="24.7998" width="0.8" height="0.8" fill="#D9D9D9"/>
<rect x="19.499" y="26" width="0.8" height="0.8" fill="#D9D9D9"/>
<rect x="20.6987" y="26" width="0.8" height="0.8" fill="#D9D9D9"/>
<rect x="19.499" y="28.7998" width="0.8" height="0.8" fill="#D9D9D9"/>
<rect x="20.6987" y="28.7998" width="0.8" height="0.8" fill="#D9D9D9"/>
<rect x="19.499" y="30" width="0.8" height="0.8" fill="#D9D9D9"/>
<rect x="20.6987" y="30" width="0.8" height="0.8" fill="#D9D9D9"/>
<rect x="19.499" y="32.7998" width="0.8" height="0.8" fill="#D9D9D9"/>
<rect x="20.6987" y="32.7998" width="0.8" height="0.8" fill="#D9D9D9"/>
<rect x="19.499" y="34" width="0.8" height="0.8" fill="#D9D9D9"/>
<rect x="20.6987" y="34" width="0.8" height="0.8" fill="#D9D9D9"/>
</g>
<defs>
<linearGradient id="paint0_linear_120_1594" x1="20.4973" y1="9.29492" x2="20.4973" y2="39.9999" gradientUnits="userSpaceOnUse">
<stop stop-color="#3F5155"/>
<stop offset="1" stop-color="#313F42"/>
</linearGradient>
<clipPath id="clip0_120_1594">
<rect x="0.5" width="40" height="40" rx="6.4" fill="white"/>
</clipPath>
</defs>
</svg>
