<svg width="28" height="29" viewBox="0 0 28 29" fill="none" xmlns="http://www.w3.org/2000/svg">
<path d="M1.13284 9.36703H26.8668V8.27703C26.8668 5.86353 25.6368 4.64453 23.1873 4.64453H4.81234C2.36334 4.64453 1.13234 5.86353 1.13234 8.27753L1.13284 9.36703ZM1.13284 20.7345C1.13284 23.1485 2.36284 24.3555 4.81234 24.3555H23.1873C25.6363 24.3555 26.8673 23.1485 26.8673 20.7345V12.0275H1.13184L1.13284 20.7345ZM5.04684 17.875V15.707C5.04684 15.051 5.50384 14.582 6.19534 14.582H9.06634C9.75784 14.582 10.2148 15.051 10.2148 15.707V17.875C10.2148 18.543 9.75784 19 9.06634 19H6.19484C5.50334 19 5.04684 18.543 5.04684 17.875Z" fill="#00BF72"/>
</svg>
