<svg width="28" height="29" viewBox="0 0 28 29" fill="none" xmlns="http://www.w3.org/2000/svg">
<path d="M28 25H3.5V23.25H26.25V11H28V25Z" fill="#00BF72"/>
<path d="M22.75 7.5V19.75H1.75V7.5H22.75ZM24.5 5.75H0V21.5H24.5V5.75Z" fill="#00BF72"/>
<path d="M5.25 11H3.5V16.25H5.25V18H12.25C11.0897 18 9.97688 17.5391 9.15641 16.7186C8.33594 15.8981 7.875 14.7853 7.875 13.625C7.875 12.4647 8.33594 11.3519 9.15641 10.5314C9.97688 9.71094 11.0897 9.25 12.25 9.25H5.25V11ZM19.25 11V9.25H12.25C13.4103 9.25 14.5231 9.71094 15.3436 10.5314C16.1641 11.3519 16.625 12.4647 16.625 13.625C16.625 14.7853 16.1641 15.8981 15.3436 16.7186C14.5231 17.5391 13.4103 18 12.25 18H19.25V16.25H21V11H19.25Z" fill="#00BF72"/>
</svg>
