<svg width="40" height="40" viewBox="0 0 40 40" fill="none" xmlns="http://www.w3.org/2000/svg">
<rect x="0.5" y="0.5" width="39" height="39" rx="3.5" fill="#005935" stroke="white"/>
<path fill-rule="evenodd" clip-rule="evenodd" d="M27.5788 24.7417C27.5788 24.7417 21.043 19.2373 21.043 13.8211C21.043 11.9115 21.8015 10.0802 23.1518 8.72992C24.5021 7.37966 26.3334 6.62109 28.243 6.62109C30.1525 6.62109 31.9839 7.37966 33.3341 8.72992C34.6844 10.0802 35.443 11.9115 35.443 13.8211C35.443 19.2373 28.9072 24.7417 28.9072 24.7417C28.5436 25.0765 27.9451 25.0729 27.5788 24.7417ZM28.243 16.9711C28.6566 16.9711 29.0662 16.8896 29.4484 16.7313C29.8306 16.573 30.1778 16.341 30.4704 16.0485C30.7629 15.756 30.9949 15.4087 31.1532 15.0265C31.3115 14.6444 31.393 14.2348 31.393 13.8211C31.393 13.4074 31.3115 12.9978 31.1532 12.6156C30.9949 12.2335 30.7629 11.8862 30.4704 11.5937C30.1778 11.3012 29.8306 11.0692 29.4484 10.9109C29.0662 10.7526 28.6566 10.6711 28.243 10.6711C27.4075 10.6711 26.6063 11.003 26.0156 11.5937C25.4248 12.1844 25.093 12.9857 25.093 13.8211C25.093 14.6565 25.4248 15.4577 26.0156 16.0485C26.6063 16.6392 27.4075 16.9711 28.243 16.9711Z" fill="#00BF72"/>
<g filter="url(#filter0_d_69_132)">
<path d="M25.3047 20.2217C25.3572 20.1502 25.4348 20.0751 25.5213 20.0951C25.5535 20.1027 25.5788 20.1211 25.5981 20.1463C25.635 20.1944 25.6828 20.6088 25.684 20.6724C25.6895 20.9945 25.6391 21.2349 25.6072 21.3079C25.5752 21.3808 25.5181 21.4465 25.4422 21.4708C25.2959 21.5174 25.1444 21.3937 25.0843 21.2525C25.0181 21.0963 24.9788 20.9022 25.0374 20.7428C25.106 20.5567 25.1869 20.382 25.3047 20.2217Z" fill="#E0E0E0"/>
<path opacity="0.6" d="M25.5855 20.1336C25.5679 20.1152 25.5474 20.1008 25.521 20.0947C25.4346 20.0744 25.3569 20.1495 25.3044 20.2213C25.1866 20.3819 25.1057 20.5563 25.0374 20.7424C24.9788 20.9018 25.0181 21.0958 25.0843 21.2521C25.0943 21.2761 25.5327 20.6492 25.5855 20.1336Z" fill="url(#paint0_linear_69_132)"/>
<path d="M23.729 28.7533L19.6498 31.1085L18.709 29.6888L19.187 28.6545L20.6117 27.6885L23.729 28.7533Z" fill="#26231F"/>
<path d="M7.97665 20.394L6.55195 21.3601L6.50887 21.4536C6.23776 22.0403 6.28231 22.7244 6.62727 23.271L6.98133 23.832L11.0942 21.4591L7.97665 20.394Z" fill="#26231F"/>
<path d="M22.4154 29.3356C22.0154 29.1047 21.6537 29.0853 21.394 29.2409L20.498 29.7582L22.5406 33.253L23.4366 32.7357C23.6901 32.5839 23.8466 32.2656 23.8466 31.8146C23.8466 30.9019 23.2059 29.7919 22.4154 29.3356Z" fill="#26231F"/>
<path d="M22.9512 32.3316C22.9512 33.2443 22.3105 33.6142 21.52 33.1579C20.7296 32.7015 20.0889 31.5916 20.0889 30.6789C20.0889 29.7662 20.7296 29.3964 21.52 29.8527C22.3102 30.309 22.9512 31.419 22.9512 32.3316Z" fill="#3F3932"/>
<path d="M21.5146 32.6853C20.9701 32.384 20.5208 31.6237 20.5114 30.9874C20.502 30.3511 20.9358 30.0794 21.4803 30.3807C22.0249 30.682 22.4742 31.4423 22.4836 32.0786C22.4929 32.7152 22.0592 32.9869 21.5146 32.6853Z" fill="#D8D8D8"/>
<path d="M21.515 32.5236C21.0467 32.2645 20.6607 31.6109 20.6525 31.0637C20.6443 30.5165 21.0174 30.2832 21.4854 30.5423C21.9538 30.8014 22.3398 31.455 22.348 32.0022C22.3562 32.5494 21.9834 32.7826 21.515 32.5236Z" fill="#A8A8A8"/>
<path d="M21.5549 32.0653C21.2902 31.9187 21.0719 31.5494 21.0675 31.2402C21.0628 30.931 21.2735 30.7991 21.5382 30.9454C21.8028 31.0916 22.0212 31.4612 22.0256 31.7704C22.0303 32.0796 21.8195 32.2115 21.5549 32.0653Z" fill="#D8D8D8"/>
<path d="M22.0737 31.2269C21.9573 31.0176 21.7917 30.8347 21.6088 30.7336C21.2642 30.5428 20.9896 30.7148 20.9957 31.1175C21.0016 31.5203 21.2862 32.0015 21.6308 32.1923C21.9614 32.3752 22.2276 32.2246 22.2434 31.8564C22.244 31.8409 22.2443 31.8248 22.244 31.8084C22.241 31.619 22.1768 31.4124 22.0737 31.2269ZM22.0244 31.8075C22.0121 32.09 21.8081 32.2058 21.554 32.0654C21.2894 31.9189 21.071 31.5496 21.0666 31.2404C21.0619 30.9311 21.2727 30.7993 21.5373 30.9455C21.6777 31.0232 21.8049 31.1633 21.894 31.3242C21.9336 31.3954 21.9658 31.4707 21.9884 31.5463C22.011 31.622 22.0239 31.6979 22.0247 31.7706C22.0253 31.7832 22.025 31.7955 22.0244 31.8075Z" fill="#BEBEBE"/>
<path d="M9.85977 22.0929C9.4597 21.862 9.09803 21.8426 8.83835 21.9983L7.94238 22.5156L9.98491 26.0104L10.8809 25.4931C11.1344 25.3412 11.2909 25.0229 11.2909 24.5719C11.2909 23.6592 10.6502 22.5493 9.85977 22.0929Z" fill="#26231F"/>
<path d="M10.3955 25.089C10.3955 26.0016 9.75482 26.3715 8.96436 25.9152C8.1739 25.4588 7.5332 24.3489 7.5332 23.4362C7.5332 22.5236 8.1739 22.1537 8.96436 22.61C9.75452 23.0664 10.3955 24.1763 10.3955 25.089Z" fill="#3F3932"/>
<path d="M8.96776 25.4425C8.4232 25.1412 7.97389 24.3809 7.96451 23.7446C7.95484 23.1083 8.38891 22.8366 8.93346 23.1382C9.47802 23.4395 9.92733 24.1998 9.93671 24.8361C9.94609 25.4724 9.51232 25.7441 8.96776 25.4425Z" fill="#D8D8D8"/>
<path d="M8.96621 25.2809C8.49785 25.0218 8.11185 24.3682 8.10365 23.821C8.09544 23.2738 8.46855 23.0405 8.93661 23.2996C9.40496 23.5587 9.79096 24.2123 9.79917 24.7595C9.80737 25.3064 9.43457 25.54 8.96621 25.2809Z" fill="#A8A8A8"/>
<path d="M9.00604 24.8231C8.74138 24.6766 8.52303 24.3073 8.51863 23.9981C8.51394 23.6888 8.72467 23.557 8.98933 23.7032C9.25399 23.8498 9.47234 24.219 9.47674 24.5283C9.48143 24.8375 9.2707 24.9694 9.00604 24.8231Z" fill="#D8D8D8"/>
<path d="M9.52486 23.9847C9.4085 23.7754 9.24291 23.5925 9.06002 23.4914C8.71535 23.3006 8.44072 23.4727 8.44688 23.8754C8.45274 24.2781 8.73733 24.7593 9.082 24.9501C9.4126 25.133 9.67873 24.9824 9.69456 24.6142C9.69514 24.5987 9.69544 24.5826 9.69514 24.5662C9.69251 24.3768 9.62802 24.1702 9.52486 23.9847ZM9.47562 24.5653C9.46331 24.8478 9.25932 24.9636 9.00521 24.8232C8.74055 24.6767 8.5222 24.3074 8.51781 23.9982C8.51312 23.689 8.72385 23.5571 8.9885 23.7033C9.12889 23.781 9.2561 23.9211 9.3452 24.082C9.38476 24.1532 9.417 24.2285 9.43957 24.3042C9.46214 24.3798 9.47503 24.4557 9.4762 24.5284C9.4765 24.541 9.4762 24.5533 9.47562 24.5653Z" fill="#BEBEBE"/>
<path d="M31.2142 25.8912C30.759 25.1883 29.9044 24.4117 29.2077 23.9468C27.237 22.6314 26.4137 21.9022 24.6264 20.3794C24.0054 19.85 22.8799 18.7741 22.2249 18.2879C21.9467 18.0815 18.1228 15.7995 16.4973 15.1586C16.4973 15.1861 12.7303 15.4297 12.7303 15.4297L11.3882 15.0237C11.3882 15.0237 11.1611 14.9276 10.8088 15.1222C9.99193 15.5742 6.61878 17.539 5.76618 18.0361C5.62081 18.1208 5.49478 18.2348 5.40334 18.3761C5.35381 18.4523 5.30779 18.5355 5.28933 18.6038C5.22338 18.8488 5.11816 19.115 5.11816 19.3207V21.775C5.11816 21.9691 5.16711 22.1593 5.26325 22.3278C5.42239 22.6071 6.62464 23.5652 6.98455 23.8331C6.99071 22.3867 7.45818 21.4855 8.8524 22.2906C10.1728 23.0529 10.7208 24.5553 10.7208 26.0184L19.6504 31.1087C19.6641 29.684 20.1351 28.8045 21.5176 29.6028C22.8061 30.3467 23.3576 31.7954 23.3834 33.2245C23.8761 33.5003 23.6296 33.3485 23.797 33.4341C24.2648 33.6715 24.77 33.8057 25.2838 33.8104C27.0596 33.8265 28.4545 33.0865 29.7476 32.243C30.6928 31.6266 31.4246 30.9985 31.7831 30.434C31.9396 30.1876 32.0055 29.8953 31.9997 29.6034C31.9844 28.8282 31.9783 27.0711 31.2142 25.8912Z" fill="#E8E8E8"/>
<path opacity="0.2" d="M7.08303 22.8684C7.0165 23.1439 6.98602 23.4716 6.98456 23.8336C6.62494 23.5657 5.42239 22.6076 5.26325 22.3283C5.16741 22.1597 5.11816 21.9695 5.11816 21.7755V21.7339L7.08303 22.8684ZM10.6095 24.9045C10.6845 25.27 10.7208 25.6457 10.7208 26.0188L19.6504 31.1092C19.6539 30.7616 19.685 30.4474 19.7491 30.1813L10.6095 24.9045Z" fill="url(#paint1_linear_69_132)"/>
<path d="M29.7081 30.6236C31.7334 29.368 31.9204 28.1332 31.9072 28.0309C31.8143 27.3108 31.6226 26.5192 31.2155 25.8908C30.7603 25.188 29.9057 24.4113 29.209 23.9465C27.2383 22.6311 26.415 21.9019 24.6277 20.379C24.0067 19.8497 22.8812 18.7737 22.2262 18.2875C21.948 18.0812 17.0412 15.3036 16.4986 15.1582C15.8454 15.3637 13.0103 16.8613 11.1814 18.0393C11.0689 18.1117 11.0865 18.2816 11.211 18.3303C12.8339 18.9607 16.3366 20.9816 16.9134 21.6818C17.6238 22.5437 20.0321 26.351 20.0321 26.351C20.8624 27.1965 22.7675 28.8531 23.628 29.6661C24.5914 30.6295 24.5331 30.9911 24.6187 31.7397C24.633 31.8645 24.7268 31.9695 24.8508 31.99C26.2424 32.2186 27.8051 31.8742 29.7081 30.6236Z" fill="#E0E0E0"/>
<path d="M16.4975 15.1582C15.8442 15.3637 13.0091 16.8613 11.1803 18.0393C11.0677 18.1117 11.0888 18.2729 11.2099 18.33C12.5932 18.9836 15.2149 20.4227 16.4286 21.275C16.5482 21.3588 18.3844 20.6331 19.8422 19.7952C21.1318 19.0539 22.0805 18.1934 22.0336 18.1618C21.1919 17.5964 17.1757 15.2309 16.4975 15.1582Z" fill="#EBEBEB"/>
<path opacity="0.6" d="M24.7905 30.1116C28.4081 30.3877 31.7394 27.3264 31.3519 26.127C31.3085 26.0461 31.2625 25.9673 31.213 25.8908C30.7578 25.188 29.9032 24.4113 29.2065 23.9465C28.2932 23.3368 27.6267 22.8529 26.996 22.3579C24.4971 25.7006 20.0293 26.3507 20.0293 26.3507C20.6577 26.9905 22.6187 28.7513 23.5364 29.5708C23.8849 29.8824 24.3245 30.0761 24.7905 30.1116Z" fill="url(#paint2_linear_69_132)"/>
<path opacity="0.2" d="M10.2463 19.8152C10.2302 19.8102 10.2161 19.8208 10.2088 19.8357C9.92919 20.4175 10.0033 22.5448 9.93799 23.2836C9.95763 23.3124 9.99514 23.3686 9.99514 23.3686C10.0587 22.6473 10.0236 20.3938 10.2668 19.8521C10.2739 19.8372 10.2624 19.8196 10.2463 19.8152Z" fill="#4B4B4B"/>
<path opacity="0.2" d="M20.6636 27.7515L19.2339 25.5879C19.2172 25.5993 19.1996 25.6093 19.1812 25.6175L20.6079 27.7773V29.3028C20.6278 29.3025 20.6475 29.3022 20.6683 29.3034V27.7682C20.6686 27.7623 20.6668 27.7564 20.6636 27.7515Z" fill="#4B4B4B"/>
<path opacity="0.2" d="M14.7173 23.1543C14.6982 23.1435 14.6789 23.1329 14.6598 23.1221C14.5452 24.3261 14.4415 25.9108 14.4394 27.7162L10.7017 25.5585C10.7037 25.5828 10.7052 25.6069 10.7069 25.6312L14.4544 27.7948L19.6625 30.8016C19.664 30.779 19.6661 30.7573 19.6678 30.735L14.4995 27.7511C14.5004 25.9466 14.6033 24.3607 14.7173 23.1543Z" fill="#4B4B4B"/>
<path d="M21.6094 26.0376C23.4146 25.5446 25.1652 24.4279 26.6547 23.017C26.8238 22.8567 26.8147 22.5835 26.6383 22.4311L22.0634 18.4756C21.0151 19.4313 19.299 20.3818 17.1226 21.3282C18.2087 23.1814 19.4863 24.9455 20.4699 25.8066C20.8424 26.1328 21.1669 26.1583 21.6094 26.0376Z" fill="#282523"/>
<path d="M20.7402 25.324C20.6904 25.324 20.6406 25.3211 20.5913 25.3155C20.2437 25.276 19.9659 25.0225 19.7475 24.749C19.1892 24.0494 18.001 22.5303 17.4984 21.6868C17.4453 21.598 17.4849 21.484 17.5795 21.4418C19.6104 20.5408 21.0767 19.7005 22.0436 18.8831C22.1204 18.8184 22.2306 18.8181 22.3071 18.8834L25.8737 21.9846C25.9337 22.0365 25.9695 22.1121 25.9713 22.1915C25.973 22.2703 25.9428 22.3433 25.8866 22.397C24.2983 23.9014 22.7725 24.817 21.0849 25.2774C20.9729 25.3085 20.8569 25.324 20.7402 25.324Z" fill="#35312D"/>
<path d="M16.9478 22.1207C16.7069 21.7556 16.3869 21.451 16.0088 21.2312C14.5398 20.3783 12.7326 19.3001 11.533 18.7171C11.4035 18.6544 11.2593 18.6368 11.1192 18.6693C10.3381 18.8499 8.42248 19.8033 8.80995 20.0269C10.0298 20.7312 18.0109 25.2911 19.2319 25.9564C19.3069 25.9971 19.4048 25.9162 19.3611 25.843C19.0126 25.258 17.6193 23.1386 16.9478 22.1207Z" fill="#282523"/>
<path d="M10.5592 18.9746C9.85046 19.2736 8.96768 19.7525 8.96387 19.9266C9.17372 20.0479 9.54418 20.2604 10.0222 20.5341C10.0688 20.2624 10.2033 19.6748 10.5592 18.9746Z" fill="#35312D"/>
<path d="M10.1494 20.6084C11.2971 21.2655 12.9982 22.2371 14.6287 23.1656C14.6744 22.7573 14.813 21.7678 15.1565 20.8323C13.8807 20.0876 12.4528 19.2555 11.4654 18.7804C11.3734 18.7361 11.2722 18.7268 11.1735 18.7523C11.0606 18.7816 10.9164 18.8311 10.7573 18.8932C10.33 19.6866 10.189 20.3628 10.1494 20.6084Z" fill="#35312D"/>
<path d="M16.8802 22.1662C16.6466 21.8122 16.3315 21.5135 15.969 21.3031L15.2828 20.9033C14.9323 21.8685 14.8013 22.8884 14.7646 23.2404C16.7779 24.3867 18.6528 25.4494 19.1929 25.7437C19.1938 25.7443 19.2102 25.746 19.2102 25.746C18.855 25.1505 17.4869 23.0862 16.8802 22.1662Z" fill="#35312D"/>
<path d="M27.7298 30.1524C27.8157 30.434 28.1047 31.0982 28.2923 31.0583C29.1299 30.8801 30.8031 29.6582 31.0464 29.1899C31.1314 29.026 30.814 28.0031 30.7152 27.9771C30.3409 28.4035 29.7967 28.8918 29.2117 29.2564C28.4576 29.7259 27.6926 30.0298 27.7298 30.1524Z" fill="#E7E7E7"/>
<path d="M29.2128 29.2564C28.7855 29.5225 28.3491 29.7238 28.0613 29.8707C27.8409 29.9829 27.7075 30.0539 27.7312 30.1523C27.7881 30.3897 28.0126 30.8763 28.1893 31.0167C29.0311 30.8291 30.6882 29.618 30.9303 29.152C31.0009 29.016 30.7943 28.2895 30.6656 28.0312C30.2931 28.4448 29.7738 28.907 29.2128 29.2564Z" fill="#35312D"/>
<path d="M22.3325 26.2925C23.3091 27.6888 25.1412 28.7002 26.6591 29.2454C25.2136 28.7017 23.4237 27.4006 22.3325 26.2925Z" fill="#E0E0E0"/>
<g opacity="0.6">
<path d="M26.8984 23.605C28.0359 24.379 29.7464 25.8621 30.3331 27.0831C30.1195 26.1815 28.6576 24.5382 26.8984 23.605Z" fill="url(#paint3_linear_69_132)"/>
</g>
<path d="M15.8321 24.8957L15.0586 24.4491C15.015 24.4239 14.9795 24.3679 14.9795 24.3242V24.2146C14.9795 24.1709 15.015 24.156 15.0586 24.1812L15.8321 24.6279C15.8758 24.6531 15.9112 24.709 15.9112 24.7527V24.8623C15.9112 24.906 15.8758 24.9209 15.8321 24.8957Z" fill="#E0E0E0"/>
<path d="M11.2042 22.2258L10.4307 21.7792C10.387 21.7539 10.3516 21.698 10.3516 21.6543V21.5447C10.3516 21.501 10.387 21.4861 10.4307 21.5113L11.2042 21.9579C11.2478 21.9831 11.2833 22.0391 11.2833 22.0828V22.1924C11.2833 22.2361 11.2478 22.251 11.2042 22.2258Z" fill="#E0E0E0"/>
<path d="M16.925 25.0276C16.8005 25.1724 16.9186 25.6205 17.122 25.714C17.1613 25.7319 17.2049 25.7368 17.2477 25.7415C17.6683 25.7876 18.2439 25.794 18.4482 25.5604C18.5098 25.4901 18.5033 25.4458 18.4761 25.3605C18.4356 25.2339 18.2923 24.6979 18.1821 24.6392C18.0863 24.5885 16.9989 24.9414 16.925 25.0276Z" fill="#E0E0E0"/>
<path opacity="0.6" d="M18.3582 24.9856C18.3028 24.8247 18.2381 24.6697 18.1818 24.6398C18.0859 24.5888 16.9989 24.9419 16.9247 25.0281C16.8998 25.0571 16.8852 25.0985 16.8784 25.1462C17.435 25.2271 18.0733 25.1269 18.3582 24.9856Z" fill="url(#paint4_linear_69_132)"/>
<path d="M18.9163 25.3854C18.8791 25.381 18.5169 25.2946 18.453 25.2858C18.239 25.2565 17.9407 25.6375 18.0292 25.743C18.0526 25.7708 18.9776 25.8303 19.0066 25.8324C19.1555 25.8435 19.1156 25.4092 18.9163 25.3854Z" fill="#282523"/>
<path d="M5.94184 21.6487L5.66927 21.4914C5.62941 21.4685 5.59717 21.4175 5.59717 21.3776V21.3463C5.59717 21.3064 5.62941 21.2929 5.66927 21.3158L5.94184 21.4732C5.9817 21.4963 6.01394 21.547 6.01394 21.5869V21.6183C6.01394 21.6581 5.9817 21.6716 5.94184 21.6487Z" fill="#333333"/>
<path d="M19.3237 29.3758L19.0511 29.2184C19.0112 29.1956 18.979 29.1446 18.979 29.1047V29.0733C18.979 29.0335 19.0112 29.02 19.0511 29.0429L19.3237 29.2002C19.3635 29.2231 19.3958 29.2741 19.3958 29.314V29.3453C19.3961 29.3852 19.3635 29.399 19.3237 29.3758Z" fill="#333333"/>
<path d="M5.16537 19.0142C5.16537 19.0142 4.82393 19.6707 5.12229 20.5508C5.3298 20.5977 5.40541 19.7097 5.4271 19.3577C5.43237 19.2706 5.39076 19.1877 5.31836 19.1393L5.16537 19.0142Z" fill="#991111"/>
<path d="M27.0022 30.3739C27.3313 30.3331 27.7185 31.2496 27.3592 31.4533C27.008 31.6523 26.093 31.883 24.8512 31.7444C24.3192 31.5714 24.1973 30.5008 24.7592 30.4486C25.1513 30.4703 25.7504 30.5286 27.0022 30.3739Z" fill="#F0FDFF"/>
<path d="M24.7568 30.4485C23.9007 30.4016 24.2595 31.6783 24.8489 31.7443C24.6595 31.5066 24.4986 30.6883 24.7568 30.4485Z" fill="#333333"/>
<path d="M31.1515 27.6116C31.109 27.8548 31.3042 28.6239 31.3968 28.6632C31.5105 28.7115 31.8634 28.0521 31.8605 27.715C31.8578 27.4243 31.706 26.7429 31.5313 26.5049C31.4103 27.0389 31.177 27.4647 31.1515 27.6116Z" fill="#F0FDFF"/>
<path d="M29.3307 29.7651C29.3972 29.9178 29.559 29.9793 29.6924 29.9022C29.8257 29.8251 29.8796 29.639 29.8134 29.4863C29.7469 29.3336 29.5851 29.2721 29.4517 29.3492C29.3184 29.426 29.2641 29.6124 29.3307 29.7651Z" fill="#4C4742"/>
<path d="M30.8011 30.4482L28.9688 31.6772V32.3357L30.8011 31.1071V30.4482Z" fill="white"/>
<path d="M12.4954 15.688L7.56097 18.5369C7.25411 18.7493 7.99357 18.626 8.85583 18.4964C9.59823 18.3847 10.4066 18.2367 10.4066 18.2367C10.566 18.2086 10.9596 18.0067 11.0985 17.9234C12.8635 16.8662 14.593 15.8829 15.8006 15.3486L13.0151 15.5491C12.8328 15.5491 12.6534 15.5969 12.4954 15.688Z" fill="#282523"/>
<path d="M25.1037 33.4553C25.9425 33.5535 26.6699 33.3935 26.9874 33.2713C27.1228 33.2191 27.0823 33.0503 27.0724 32.9011C27.068 32.8346 27.0126 32.7845 26.946 32.7877C26.6342 32.8023 26.0298 32.8501 25.1368 32.5603C25.0471 32.5312 24.9548 32.5954 24.9551 32.6895L24.956 33.2728C24.956 33.361 25.0163 33.4451 25.1037 33.4553Z" fill="#35312D"/>
<path d="M31.9563 28.5728C31.9513 28.6871 31.9279 28.9204 31.8326 29.3234C31.8139 29.4022 31.8033 29.484 31.8027 29.5651C31.8019 29.6701 31.8024 29.9057 31.8024 30.0279C31.8024 30.0745 31.825 30.0707 31.8359 30.0523C31.9112 29.9233 31.9701 29.7521 31.995 29.6343C31.995 29.6238 31.9965 29.6135 31.9965 29.603C31.9912 29.3477 31.9868 28.9851 31.9563 28.5728Z" fill="#35312D"/>
</g>
<defs>
<filter id="filter0_d_69_132" x="2.06912" y="13.2415" width="32.8618" height="24.6723" filterUnits="userSpaceOnUse" color-interpolation-filters="sRGB">
<feFlood flood-opacity="0" result="BackgroundImageFix"/>
<feColorMatrix in="SourceAlpha" type="matrix" values="0 0 0 0 0 0 0 0 0 0 0 0 0 0 0 0 0 0 127 0" result="hardAlpha"/>
<feOffset dy="1.17235"/>
<feGaussianBlur stdDeviation="1.46544"/>
<feComposite in2="hardAlpha" operator="out"/>
<feColorMatrix type="matrix" values="0 0 0 0 0 0 0 0 0 0 0 0 0 0 0 0 0 0 0.25 0"/>
<feBlend mode="normal" in2="BackgroundImageFix" result="effect1_dropShadow_69_132"/>
<feBlend mode="normal" in="SourceGraphic" in2="effect1_dropShadow_69_132" result="shape"/>
</filter>
<linearGradient id="paint0_linear_69_132" x1="25.0087" y1="20.672" x2="25.5855" y2="20.672" gradientUnits="userSpaceOnUse">
<stop stop-color="#414141"/>
<stop offset="0.1443" stop-color="#F6F6F6"/>
<stop offset="0.4096" stop-color="#E4E4E4"/>
<stop offset="0.6501" stop-color="#E0E0E0"/>
<stop offset="0.8549" stop-color="#BFBFBF"/>
<stop offset="1" stop-color="#C2C2C2"/>
</linearGradient>
<linearGradient id="paint1_linear_69_132" x1="12.5975" y1="26.0522" x2="12.1428" y2="26.8398" gradientUnits="userSpaceOnUse">
<stop stop-color="white"/>
<stop offset="0.2436" stop-color="#ECECEC"/>
<stop offset="0.4856" stop-color="#D5D5D5"/>
<stop offset="0.7001" stop-color="#BCBCBC"/>
<stop offset="0.8788" stop-color="#9D9D9D"/>
<stop offset="1" stop-color="#666666"/>
</linearGradient>
<linearGradient id="paint2_linear_69_132" x1="24.5624" y1="25.0049" x2="28.7978" y2="29.1286" gradientUnits="userSpaceOnUse">
<stop stop-color="#E0E0E0"/>
<stop offset="1" stop-color="#F4F4F4"/>
</linearGradient>
<linearGradient id="paint3_linear_69_132" x1="26.8984" y1="25.344" x2="30.3331" y2="25.344" gradientUnits="userSpaceOnUse">
<stop offset="0.033" stop-color="#A1A1A1"/>
<stop offset="0.4258" stop-color="#C2C2C2"/>
<stop offset="0.7619" stop-color="#EBEBEB"/>
<stop offset="1" stop-color="#2C0000"/>
</linearGradient>
<linearGradient id="paint4_linear_69_132" x1="16.8785" y1="24.9048" x2="18.3582" y2="24.9048" gradientUnits="userSpaceOnUse">
<stop stop-color="#696969"/>
<stop offset="0.1443" stop-color="#969696"/>
<stop offset="0.4096" stop-color="#B3B3B3"/>
<stop offset="0.6501" stop-color="#C9C9C9"/>
<stop offset="0.8549" stop-color="#E1E1E1"/>
<stop offset="1" stop-color="#FBFBFB"/>
</linearGradient>
</defs>
</svg>
