<svg width="70" height="70" viewBox="0 0 70 70" fill="none" xmlns="http://www.w3.org/2000/svg">
<rect width="70" height="70" rx="35" fill="#E53636"/>
<path d="M27.8269 37.9415C28.0704 37.8529 28.315 37.7688 28.5606 37.6892C29.574 37.3609 30.1706 36.2677 29.7966 35.2703C29.2817 33.8975 30.2966 32.433 31.7629 32.433L38.3023 32.433C39.7685 32.433 40.7834 33.8975 40.2685 35.2703C39.9141 36.2156 40.4907 37.2501 41.4581 37.5388C41.8667 37.6607 42.2727 37.795 42.6753 37.9415C43.4789 38.234 44.2609 38.5724 45.018 38.9538C46.2662 39.5827 47.8552 39.0405 48.2871 37.7112L49.4254 34.2079C49.6128 33.6312 49.45 32.9943 48.9855 32.6045C45.0761 29.3242 40.1359 27.5261 35.0326 27.5261C29.9292 27.5261 24.989 29.3242 21.0796 32.6045C20.6148 32.9946 20.4519 33.6319 20.6394 34.2091L21.8395 37.9024C22.2768 39.2485 23.8975 39.7843 25.1502 39.1257C26.0107 38.6734 26.9046 38.2772 27.8269 37.9415Z" fill="white" stroke="white" stroke-linecap="round" stroke-linejoin="round"/>
</svg>
