<svg width="25" height="25" viewBox="0 0 25 25" fill="none" xmlns="http://www.w3.org/2000/svg">
<path fill-rule="evenodd" clip-rule="evenodd" d="M10.4186 2.39391C11.3222 2.02755 12.333 2.02755 13.2366 2.39391L20.7346 5.43391C20.9008 5.50211 21.0559 5.5948 21.1946 5.70891L17.8206 7.01191L8.22864 3.28191L10.4186 2.39391ZM12.5776 10.6459L21.8276 7.07191V12.6909C20.6596 11.5699 19.0746 10.8809 17.3276 10.8809C16.4364 10.88 15.5546 11.0629 14.7373 11.4182C13.9201 11.7735 13.1848 12.2936 12.5776 12.9459V10.6459ZM11.0776 15.5909V10.6459L1.82764 7.07291V16.7079C1.82763 17.0564 1.93166 17.3969 2.12638 17.6859C2.32111 17.9748 2.59767 18.1991 2.92064 18.3299L10.4186 21.3699C10.6322 21.4551 10.8527 21.5216 11.0776 21.5689V19.1719C10.9146 18.6039 10.8276 18.0029 10.8276 17.3819C10.8271 16.7762 10.9113 16.1733 11.0776 15.5909ZM11.8276 9.32791L2.46064 5.70891C2.59664 5.59491 2.74997 5.50324 2.92064 5.43391L6.20164 4.10391L15.7446 7.81391L11.8276 9.32791Z" fill="white"/>
<path fill-rule="evenodd" clip-rule="evenodd" d="M11.8276 17.3408C11.8276 18.7995 12.4071 20.1985 13.4385 21.2299C14.47 22.2614 15.8689 22.8408 17.3276 22.8408C18.7863 22.8408 20.1853 22.2614 21.2167 21.2299C22.2482 20.1985 22.8276 18.7995 22.8276 17.3408C22.8276 15.8821 22.2482 14.4832 21.2167 13.4517C20.1853 12.4203 18.7863 11.8408 17.3276 11.8408C15.8689 11.8408 14.47 12.4203 13.4385 13.4517C12.4071 14.4832 11.8276 15.8821 11.8276 17.3408ZM17.1996 20.8238L17.2856 20.8388L17.3396 20.8408L17.3956 20.8358L17.4556 20.8238L17.5386 20.7938L17.6126 20.7518L17.6686 20.7068L20.1816 18.1948L20.2386 18.1248C20.2963 18.0413 20.3271 17.9423 20.3271 17.8408C20.3271 17.7394 20.2963 17.6403 20.2386 17.5568L20.1816 17.4868L20.1116 17.4298C20.0281 17.3722 19.9291 17.3413 19.8276 17.3413C19.7262 17.3413 19.6271 17.3722 19.5436 17.4298L19.4736 17.4868L17.8286 19.1328L17.8276 13.8408L17.8196 13.7498C17.8014 13.6499 17.7531 13.5579 17.6813 13.4861C17.6095 13.4143 17.5175 13.3661 17.4176 13.3478L17.3276 13.3398L17.2376 13.3478C17.1377 13.3661 17.0458 13.4143 16.9739 13.4861C16.9021 13.5579 16.8539 13.6499 16.8356 13.7498L16.8276 13.8398V19.1338L15.1816 17.4868L15.1116 17.4298C15.0154 17.364 14.8991 17.3338 14.783 17.3446C14.6669 17.3554 14.5582 17.4064 14.4757 17.4889C14.3933 17.5714 14.3422 17.6801 14.3314 17.7962C14.3206 17.9123 14.3508 18.0286 14.4166 18.1248L14.4736 18.1948L17.0216 20.7368L17.0686 20.7688L17.1366 20.8038L17.1996 20.8238Z" fill="white"/>
</svg>
