<svg width="29" height="28" viewBox="0 0 29 28" fill="none" xmlns="http://www.w3.org/2000/svg">
<circle cx="14.5" cy="14" r="13" fill="#00BF72" stroke="#020F0A" stroke-width="2"/>
<path d="M13.4727 18.6855H19.1298" stroke="white" stroke-width="1.25714" stroke-linecap="round" stroke-linejoin="round"/>
<path d="M16.3011 8.31437C16.5512 8.06431 16.8904 7.92383 17.244 7.92383C17.4191 7.92383 17.5925 7.95832 17.7543 8.02533C17.916 8.09234 18.063 8.19055 18.1869 8.31437C18.3107 8.43819 18.4089 8.58518 18.4759 8.74696C18.5429 8.90873 18.5774 9.08212 18.5774 9.25723C18.5774 9.43233 18.5429 9.60572 18.4759 9.7675C18.4089 9.92928 18.3107 10.0763 18.1869 10.2001L10.3297 18.0572L7.81543 18.6858L8.444 16.1715L16.3011 8.31437Z" stroke="white" stroke-width="1.25714" stroke-linecap="round" stroke-linejoin="round"/>
</svg>
