<svg width="41" height="40" viewBox="0 0 41 40" fill="none" xmlns="http://www.w3.org/2000/svg">
<rect x="0.856934" y="0.5" width="39" height="39" rx="3.5" fill="#007646" stroke="white"/>
<g clip-path="url(#clip0_80_60)">
<path d="M16.3569 12.5C16.3569 12.3674 16.3043 12.2402 16.2105 12.1464C16.1167 12.0527 15.9895 12 15.8569 12C15.7243 12 15.5971 12.0527 15.5034 12.1464C15.4096 12.2402 15.3569 12.3674 15.3569 12.5V13H14.3569C13.8265 13 13.3178 13.2107 12.9427 13.5858C12.5676 13.9609 12.3569 14.4696 12.3569 15V16H28.3569V15C28.3569 14.4696 28.1462 13.9609 27.7711 13.5858C27.3961 13.2107 26.8874 13 26.3569 13H25.3569V12.5C25.3569 12.3674 25.3043 12.2402 25.2105 12.1464C25.1167 12.0527 24.9895 12 24.8569 12C24.7243 12 24.5971 12.0527 24.5034 12.1464C24.4096 12.2402 24.3569 12.3674 24.3569 12.5V13H16.3569V12.5ZM28.3569 26V17H12.3569V26C12.3569 26.5304 12.5676 27.0391 12.9427 27.4142C13.3178 27.7893 13.8265 28 14.3569 28H26.3569C26.8874 28 27.3961 27.7893 27.7711 27.4142C28.1462 27.0391 28.3569 26.5304 28.3569 26ZM24.8569 19H25.8569C25.9895 19 26.1167 19.0527 26.2105 19.1464C26.3043 19.2402 26.3569 19.3674 26.3569 19.5V20.5C26.3569 20.6326 26.3043 20.7598 26.2105 20.8536C26.1167 20.9473 25.9895 21 25.8569 21H24.8569C24.7243 21 24.5971 20.9473 24.5034 20.8536C24.4096 20.7598 24.3569 20.6326 24.3569 20.5V19.5C24.3569 19.3674 24.4096 19.2402 24.5034 19.1464C24.5971 19.0527 24.7243 19 24.8569 19Z" fill="#B0FFDF"/>
<path d="M24.8569 19H25.8569C25.9895 19 26.1167 19.0527 26.2105 19.1464C26.3043 19.2402 26.3569 19.3674 26.3569 19.5V20.5C26.3569 20.6326 26.3043 20.7598 26.2105 20.8536C26.1167 20.9473 25.9895 21 25.8569 21H24.8569C24.7243 21 24.5971 20.9473 24.5034 20.8536C24.4096 20.7598 24.3569 20.6326 24.3569 20.5V19.5C24.3569 19.3674 24.4096 19.2402 24.5034 19.1464C24.5971 19.0527 24.7243 19 24.8569 19Z" fill="#00EA8A"/>
</g>
<defs>
<clipPath id="clip0_80_60">
<rect width="16" height="16" fill="white" transform="translate(12.3569 12)"/>
</clipPath>
</defs>
</svg>
