<svg width="41" height="40" viewBox="0 0 41 40" fill="none" xmlns="http://www.w3.org/2000/svg">
<rect x="0.856934" y="0.5" width="39" height="39" rx="3.5" fill="#007646" stroke="white"/>
<path fill-rule="evenodd" clip-rule="evenodd" d="M11.3569 26.6L11.3569 13.4C11.3569 12.7635 11.6098 12.153 12.0599 11.7029C12.51 11.2529 13.1204 11 13.7569 11H26.9569C27.5935 11 28.2039 11.2529 28.654 11.7029C29.1041 12.153 29.3569 12.7635 29.3569 13.4V26.6C29.3569 27.2365 29.1041 27.847 28.654 28.2971C28.2039 28.7471 27.5935 29 26.9569 29H13.7569C13.4418 29 13.1297 28.9379 12.8385 28.8173C12.5473 28.6967 12.2827 28.5199 12.0599 28.2971C11.6098 27.847 11.3569 27.2365 11.3569 26.6ZM18.1499 23.293C17.9678 23.4816 17.867 23.7342 17.8693 23.9964C17.8715 24.2586 17.9767 24.5094 18.1621 24.6948C18.3475 24.8802 18.5983 24.9854 18.8605 24.9877C19.1227 24.99 19.3753 24.8892 19.5639 24.707L23.5639 20.707C23.7514 20.5195 23.8567 20.2652 23.8567 20C23.8567 19.7348 23.7514 19.4805 23.5639 19.293L19.5639 15.293C19.3753 15.1108 19.1227 15.01 18.8605 15.0123C18.5983 15.0146 18.3475 15.1198 18.1621 15.3052C17.9767 15.4906 17.8715 15.7414 17.8693 16.0036C17.867 16.2658 17.9678 16.5184 18.1499 16.707L21.4429 20L18.1499 23.293Z" fill="#B0FFDF"/>
<path d="M18.1499 23.293C17.9678 23.4816 17.867 23.7342 17.8693 23.9964C17.8715 24.2586 17.9767 24.5094 18.1621 24.6948C18.3475 24.8802 18.5983 24.9854 18.8605 24.9877C19.1227 24.99 19.3753 24.8892 19.5639 24.707L23.5639 20.707C23.7514 20.5195 23.8567 20.2652 23.8567 20C23.8567 19.7348 23.7514 19.4805 23.5639 19.293L19.5639 15.293C19.3753 15.1108 19.1227 15.01 18.8605 15.0123C18.5983 15.0146 18.3475 15.1198 18.1621 15.3052C17.9767 15.4906 17.8715 15.7414 17.8693 16.0036C17.867 16.2658 17.9678 16.5184 18.1499 16.707L21.4429 20L18.1499 23.293Z" fill="#00EA8A"/>
</svg>
