<svg width="49" height="48" viewBox="0 0 49 48" fill="none" xmlns="http://www.w3.org/2000/svg">
<path d="M1.35714 24C1.35714 11.2186 11.7186 0.857143 24.5 0.857143C37.2814 0.857143 47.6429 11.2186 47.6429 24C47.6429 36.7814 37.2814 47.1429 24.5 47.1429C11.7186 47.1429 1.35714 36.7814 1.35714 24Z" fill="white"/>
<path d="M1.35714 24C1.35714 11.2186 11.7186 0.857143 24.5 0.857143C37.2814 0.857143 47.6429 11.2186 47.6429 24C47.6429 36.7814 37.2814 47.1429 24.5 47.1429C11.7186 47.1429 1.35714 36.7814 1.35714 24Z" stroke="#E2E8F0" stroke-width="1.71429"/>
<path d="M34.3573 24.064C34.3573 18.3509 29.7494 13.7144 24.0716 13.7144C18.3938 13.7144 13.7859 18.3509 13.7859 24.064C13.7859 29.2335 17.5464 33.5184 22.4721 34.2858V27.0485H19.845V24.064H22.4721V21.783C22.4721 19.193 23.9975 17.754 26.3491 17.754C27.4719 17.754 28.6371 17.9672 28.6371 17.9672V20.4933H27.3448C26.0631 20.4933 25.6605 21.3034 25.6605 22.1135V24.0534H28.5206L28.0651 27.0378H25.6605V34.2751C30.5968 33.5184 34.3573 29.2335 34.3573 24.064Z" fill="#1877F2"/>
<path d="M28.0753 26.9696L28.5308 24.0051H25.6707V22.0782C25.6707 21.2629 26.0839 20.4689 27.355 20.4689H28.6473V17.9491C28.6473 17.9491 27.4821 17.7373 26.3593 17.7373C24.0076 17.7373 22.4823 19.1666 22.4823 21.7394V24.0051H19.8552V26.9696H22.4823V34.1585C23.0013 34.2432 23.5416 34.2855 24.0818 34.2855C24.622 34.2855 25.1623 34.2432 25.6813 34.1585V26.9696H28.0753Z" fill="white"/>
</svg>
