<svg width="49" height="48" viewBox="0 0 49 48" fill="none" xmlns="http://www.w3.org/2000/svg">
<path d="M0.928676 24C0.928676 11.2186 11.2901 0.857143 24.0715 0.857143C36.853 0.857143 47.2144 11.2186 47.2144 24C47.2144 36.7814 36.853 47.1429 24.0715 47.1429C11.2901 47.1429 0.928676 36.7814 0.928676 24Z" fill="white"/>
<path d="M0.928676 24C0.928676 11.2186 11.2901 0.857143 24.0715 0.857143C36.853 0.857143 47.2144 11.2186 47.2144 24C47.2144 36.7814 36.853 47.1429 24.0715 47.1429C11.2901 47.1429 0.928676 36.7814 0.928676 24Z" stroke="#E2E8F0" stroke-width="1.71429"/>
<path fill-rule="evenodd" clip-rule="evenodd" d="M33.9458 24.2338C33.9458 23.5044 33.8804 22.8031 33.7588 22.1299H24.0715V26.1086H29.6071C29.3687 27.3943 28.644 28.4836 27.5547 29.213V31.7938H30.8788C32.8237 30.0031 33.9458 27.3662 33.9458 24.2338Z" fill="#4285F4"/>
<path fill-rule="evenodd" clip-rule="evenodd" d="M24.0716 34.2855C26.8487 34.2855 29.177 33.3645 30.8788 31.7936L27.5547 29.2128C26.6336 29.8299 25.4555 30.1946 24.0716 30.1946C21.3926 30.1946 19.1251 28.3853 18.3162 25.9541H14.8799V28.619C16.5724 31.9806 20.0508 34.2855 24.0716 34.2855Z" fill="#34A853"/>
<path fill-rule="evenodd" clip-rule="evenodd" d="M18.3163 25.9544C18.1106 25.3372 17.9937 24.678 17.9937 24.0001C17.9937 23.3222 18.1106 22.6629 18.3163 22.0458V19.3809H14.8799C14.1833 20.7694 13.7859 22.3403 13.7859 24.0001C13.7859 25.6598 14.1833 27.2307 14.8799 28.6193L18.3163 25.9544Z" fill="#FBBC05"/>
<path fill-rule="evenodd" clip-rule="evenodd" d="M24.0716 17.8053C25.5817 17.8053 26.9375 18.3242 28.0035 19.3434L30.9536 16.3933C29.1724 14.7336 26.844 13.7144 24.0716 13.7144C20.0508 13.7144 16.5724 16.0193 14.8799 19.3808L18.3162 22.0458C19.1251 19.6146 21.3926 17.8053 24.0716 17.8053Z" fill="#EA4335"/>
</svg>
