<svg width="41" height="40" viewBox="0 0 41 40" fill="none" xmlns="http://www.w3.org/2000/svg">
<rect x="0.856934" y="0.5" width="39" height="39" rx="3.5" fill="#007646" stroke="white"/>
<path d="M29.3569 12.5H11.3569C10.9591 12.5 10.5776 12.658 10.2963 12.9393C10.015 13.2206 9.85693 13.6022 9.85693 14V26C9.85693 26.3978 10.015 26.7794 10.2963 27.0607C10.5776 27.342 10.9591 27.5 11.3569 27.5H29.3569C29.7548 27.5 30.1363 27.342 30.4176 27.0607C30.6989 26.7794 30.8569 26.3978 30.8569 26V14C30.8569 13.6022 30.6989 13.2206 30.4176 12.9393C30.1363 12.658 29.7548 12.5 29.3569 12.5ZM29.3569 14V16.25H11.3569V14H29.3569ZM11.3569 26V17.75H29.3569V26H11.3569Z" fill="#B0FFDF"/>
<path d="M11.3569 26V17.75H29.3569V26H11.3569Z" fill="#B0FFDF"/>
<path d="M29.3569 14V16.25H11.3569V14H29.3569Z" fill="#00EA8A"/>
<path d="M12.8569 23H20.3569V24.5H12.8569V23Z" fill="#00EA8A"/>
</svg>
