<svg width="41" height="40" viewBox="0 0 41 40" fill="none" xmlns="http://www.w3.org/2000/svg">
<rect x="0.856934" y="0.5" width="39" height="39" rx="3.5" fill="#007646" stroke="white"/>
<path d="M16.7789 28.6182C18.5349 29.5402 19.4129 30.0002 20.3569 30.0002V20.0002L10.9949 15.0732L10.9549 15.1402C10.3569 16.1542 10.3569 17.4172 10.3569 19.9422V20.0592C10.3569 22.5832 10.3569 23.8462 10.9539 24.8602C11.5519 25.8752 12.6279 26.4402 14.7789 27.5692L16.7789 28.6182Z" fill="#B0FFDF"/>
<path opacity="0.7" d="M25.9341 12.432L23.9341 11.382C22.1791 10.461 21.3011 10 20.3571 10C19.4121 10 18.5351 10.46 16.7791 11.382L14.7791 12.432C12.6751 13.536 11.5991 14.1 10.9951 15.072L20.3571 20L29.7191 15.073C29.1131 14.1 28.0391 13.536 25.9341 12.432Z" fill="#B0FFDF"/>
<path opacity="0.5" d="M29.7599 15.1402L29.7189 15.0732L20.3569 20.0002V30.0002C21.3009 30.0002 22.1789 29.5402 23.9349 28.6182L25.9349 27.5682C28.0859 26.4392 29.1619 25.8752 29.7599 24.8602C30.3569 23.8462 30.3569 22.5832 30.3569 20.0602V19.9432C30.3569 17.4182 30.3569 16.1542 29.7599 15.1402Z" fill="#B0FFDF"/>
<path d="M14.6799 12.4839L14.7799 12.4319L16.2729 11.6479L25.3729 16.6529L29.3979 14.6419C29.5346 14.7966 29.6552 14.9626 29.7599 15.1399C29.9099 15.3939 30.0219 15.6639 30.1059 15.9649L26.1069 17.9639V20.9999C26.1069 21.1989 26.0279 21.3896 25.8872 21.5303C25.7466 21.6709 25.5558 21.7499 25.3569 21.7499C25.158 21.7499 24.9672 21.6709 24.8266 21.5303C24.6859 21.3896 24.6069 21.1989 24.6069 20.9999V18.7139L21.1069 20.4639V29.9039C20.8619 29.9675 20.6099 29.9997 20.3569 29.9999C20.1089 29.9999 19.8639 29.9679 19.6069 29.9039V20.4639L10.6089 15.9639C10.6929 15.6639 10.8049 15.3939 10.9549 15.1399C11.0589 14.9626 11.1796 14.7966 11.3169 14.6419L20.3569 19.1619L23.7439 17.4689L14.6799 12.4839Z" fill="#B0FFDF"/>
</svg>
