<svg width="24" height="21" viewBox="0 0 24 21" fill="none" xmlns="http://www.w3.org/2000/svg">
<g clip-path="url(#clip0_176_1444)">
<path d="M21.7496 10.4856L22.7485 9.33889L22.314 9.02778L23.0085 8.40333L22.4729 8.00667L23.1674 7.49667L22.7196 7.15667L23.4429 3.70111L22.3429 0.5M22.3429 0.5L15.2763 3.06333H9.38737L2.3207 0.5L1.2207 3.70111L1.95848 7.15667L1.49626 7.49667L2.20515 8.00778L1.66959 8.40333L2.36404 9.02667L1.9307 9.33778L2.92848 10.4856L1.40848 15.0744L2.81293 19.7633L7.74959 18.4322L8.70515 19.1967L10.6607 20.5H14.004L15.9585 19.1967L16.914 18.4322L21.8651 19.7633L23.284 15.0744L21.7496 10.4856" fill="#F5841F"/>
<path d="M22.3435 0.5L13.6713 6.74667L15.279 3.06333L22.3435 0.5ZM2.32127 0.5L10.9213 6.80333L9.38682 3.06333L2.32127 0.5ZM19.2313 14.99L16.9146 18.4178L21.8657 19.7489L23.2846 15.06L19.2313 14.99ZM1.41016 15.0611L2.81349 19.75L7.75016 18.4178L5.44905 14.99L1.41016 15.0611Z" fill="#E27625"/>
<path d="M7.48981 9.18188L6.11426 11.2074L11.0076 11.4208L10.8487 6.29299L7.48981 9.18188ZM17.1887 9.18188L13.772 6.23633L13.672 11.4208L18.5643 11.2074L17.1887 9.18188ZM7.74981 18.4174L10.7176 17.0286L8.15537 15.103L7.74981 18.4174ZM13.9609 17.0297L16.9143 18.4186L16.5087 15.103L13.9609 17.0297Z" fill="#E27625"/>
<path d="M16.9144 18.4182L13.9611 17.0293L14.2067 18.8993L14.1778 19.6926L16.9144 18.4182ZM7.75 18.4182L10.5011 19.6926L10.4867 18.9004L10.7178 17.0304L7.75 18.4182Z" fill="#D7C1B3"/>
<path d="M10.5413 13.8542L8.0957 13.1609L9.83237 12.3809L10.5413 13.8542ZM14.119 13.8542L14.8413 12.3809L16.579 13.1609L14.119 13.8542Z" fill="#2F343B"/>
<path d="M7.75131 18.419L8.18575 14.9912L5.4502 15.0623L7.75131 18.419ZM16.4958 14.9912L16.9158 18.419L19.2324 15.0623L16.4958 14.9912ZM18.5669 11.209L13.6724 11.4223L14.1213 13.8579L14.8458 12.3845L16.5824 13.1645L18.5669 11.209ZM8.09908 13.1645L9.83575 12.3845L10.5458 13.8579L11.0091 11.4223L6.11575 11.209L8.09908 13.1645Z" fill="#CC6228"/>
<path d="M6.11426 11.209L8.15537 15.1045L8.09759 13.1645L6.11426 11.209ZM16.5809 13.1645L16.5087 15.1045L18.5643 11.209L16.5809 13.1645ZM11.0076 11.4223L10.5443 13.8579L11.1231 16.7468L11.2531 12.9512L11.0076 11.4223ZM13.6709 11.4223L13.4254 12.9379L13.5409 16.7479L14.1198 13.859L13.6709 11.4223Z" fill="#E27625"/>
<path d="M14.119 13.8554L13.539 16.7443L13.959 17.0288L16.5068 15.1021L16.579 13.1621L14.119 13.8554ZM8.0957 13.1621L8.15348 15.1021L10.7157 17.0288L11.1213 16.7454L10.5424 13.8566L8.0957 13.1621Z" fill="#F5841F"/>
<path d="M14.1789 19.6934L14.2078 18.9012L13.9767 18.7167H10.6889L10.4867 18.9012L10.5011 19.6934L7.75 18.4189L8.70556 19.1834L10.6622 20.5012H14.0056L15.96 19.1834L16.9156 18.4189L14.1789 19.6934Z" fill="#C0AD9E"/>
<path d="M13.9637 17.0275L13.5437 16.7441H11.1259L10.7204 17.0275L10.4893 18.8975L10.6915 18.713H13.9781L14.2093 18.8975L13.9637 17.0275Z" fill="#2F343B"/>
<path d="M22.7196 7.15778L23.4429 3.7L22.3429 0.5L13.9607 6.53333L17.1885 9.18222L21.7496 10.4856L22.7485 9.33889L22.314 9.02778L23.0085 8.41778L22.4729 8.00667L23.1674 7.49667L22.7196 7.15778ZM1.2207 3.70111L1.95848 7.15667L1.49626 7.49667L2.1907 8.02111L1.65515 8.41778L2.34959 9.02667L1.91626 9.33778L2.92848 10.4856L7.48959 9.18222L10.7174 6.53444L2.3207 0.5L1.2207 3.70111Z" fill="#763E1A"/>
<path d="M21.7513 10.4837L17.1902 9.18041L18.5657 11.206L16.5102 15.1015L19.2324 15.0593H23.2857L21.7513 10.4837ZM7.49127 9.18041L2.93016 10.4837L1.41016 15.0593H5.45016L8.15682 15.1015L6.11571 11.206L7.49127 9.18041ZM13.6724 11.4193L13.9613 6.53263L15.2802 3.06152H9.38793L10.719 6.53263L11.0079 11.4193L11.1246 12.9482V16.7449H13.5424L13.5568 12.9482L13.6724 11.4193Z" fill="#F5841F"/>
</g>
<defs>
<clipPath id="clip0_176_1444">
<rect width="23.3333" height="20" fill="white" transform="translate(0.666992 0.5)"/>
</clipPath>
</defs>
</svg>
