<svg width="52" height="52" viewBox="0 0 52 52" fill="none" xmlns="http://www.w3.org/2000/svg">
<rect width="52" height="52" rx="26" fill="#586761"/>
<path fill-rule="evenodd" clip-rule="evenodd" d="M21 26C21 26.5304 20.7893 27.0391 20.4142 27.4142C20.0391 27.7893 19.5304 28 19 28C18.4696 28 17.9609 27.7893 17.5858 27.4142C17.2107 27.0391 17 26.5304 17 26C17 25.4696 17.2107 24.9609 17.5858 24.5858C17.9609 24.2107 18.4696 24 19 24C19.5304 24 20.0391 24.2107 20.4142 24.5858C20.7893 24.9609 21 25.4696 21 26ZM26 24C26.5304 24 27.0391 24.2107 27.4142 24.5858C27.7893 24.9609 28 25.4696 28 26C28 26.5304 27.7893 27.0391 27.4142 27.4142C27.0391 27.7893 26.5304 28 26 28C25.4696 28 24.9609 27.7893 24.5858 27.4142C24.2107 27.0391 24 26.5304 24 26C24 25.4696 24.2107 24.9609 24.5858 24.5858C24.9609 24.2107 25.4696 24 26 24ZM33 24C33.5304 24 34.0391 24.2107 34.4142 24.5858C34.7893 24.9609 35 25.4696 35 26C35 26.5304 34.7893 27.0391 34.4142 27.4142C34.0391 27.7893 33.5304 28 33 28C32.4696 28 31.9609 27.7893 31.5858 27.4142C31.2107 27.0391 31 26.5304 31 26C31 25.4696 31.2107 24.9609 31.5858 24.5858C31.9609 24.2107 32.4696 24 33 24Z" fill="white"/>
</svg>
