<svg width="25" height="25" viewBox="0 0 25 25" fill="none" xmlns="http://www.w3.org/2000/svg">
<path fill-rule="evenodd" clip-rule="evenodd" d="M11.2634 3.01305C12.167 2.64669 13.1778 2.64669 14.0814 3.01305L21.5794 6.05305C21.7456 6.12125 21.9006 6.21394 22.0394 6.32805L18.6654 7.63105L9.07336 3.90105L11.2634 3.01305ZM13.4224 11.2651L22.6724 7.69105V13.3101C21.5044 12.1891 19.9194 11.5001 18.1724 11.5001C17.2812 11.4991 16.3994 11.682 15.5821 12.0373C14.7648 12.3926 14.0296 12.9127 13.4224 13.5651V11.2651ZM11.9224 16.2101V11.2651L2.67236 7.69205V17.3271C2.67236 17.6755 2.77639 18.016 2.97111 18.305C3.16584 18.594 3.4424 18.8182 3.76536 18.9491L11.2634 21.9891C11.4769 22.0742 11.6974 22.1408 11.9224 22.1881V19.7911C11.7594 19.2231 11.6724 18.6221 11.6724 18.0011C11.6718 17.3953 11.756 16.7925 11.9224 16.2101ZM12.6724 9.94705L3.30536 6.32805C3.44136 6.21405 3.5947 6.12239 3.76536 6.05305L7.04636 4.72305L16.5894 8.43305L12.6724 9.94705Z" fill="white"/>
<path fill-rule="evenodd" clip-rule="evenodd" d="M23.6724 18.0001C23.6724 16.5414 23.0929 15.1424 22.0615 14.111C21.03 13.0795 19.6311 12.5001 18.1724 12.5001C16.7137 12.5001 15.3147 13.0795 14.2833 14.111C13.2518 15.1424 12.6724 16.5414 12.6724 18.0001C12.6724 19.4587 13.2518 20.8577 14.2833 21.8891C15.3147 22.9206 16.7137 23.5001 18.1724 23.5001C19.6311 23.5001 21.03 22.9206 22.0615 21.8891C23.0929 20.8577 23.6724 19.4587 23.6724 18.0001ZM18.3004 14.5171L18.2144 14.5021L18.1604 14.5001L18.1044 14.5051L18.0444 14.5171L17.9614 14.5471L17.8874 14.5891L17.8314 14.6341L15.3184 17.1461L15.2614 17.2161C15.2037 17.2995 15.1729 17.3986 15.1729 17.5001C15.1729 17.6015 15.2037 17.7006 15.2614 17.7841L15.3184 17.8541L15.3884 17.9111C15.4719 17.9687 15.5709 17.9995 15.6724 17.9995C15.7738 17.9995 15.8729 17.9687 15.9564 17.9111L16.0264 17.8541L17.6714 16.2081L17.6724 21.5001L17.6804 21.5911C17.6986 21.691 17.7469 21.7829 17.8187 21.8547C17.8905 21.9266 17.9825 21.9748 18.0824 21.9931L18.1724 22.0011L18.2624 21.9931C18.3623 21.9748 18.4542 21.9266 18.5261 21.8547C18.5979 21.7829 18.6461 21.691 18.6644 21.5911L18.6724 21.5011V16.2071L20.3184 17.8541L20.3884 17.9111C20.4846 17.9769 20.6009 18.0071 20.717 17.9963C20.8331 17.9855 20.9418 17.9344 21.0243 17.852C21.1067 17.7695 21.1578 17.6608 21.1686 17.5447C21.1794 17.4285 21.1492 17.3123 21.0834 17.2161L21.0264 17.1461L18.4784 14.6041L18.4314 14.5721L18.3634 14.5371L18.3004 14.5171Z" fill="white"/>
</svg>
