<svg width="9" height="8" viewBox="0 0 9 8" fill="none" xmlns="http://www.w3.org/2000/svg">
<mask id="path-1-outside-1_69_1460" maskUnits="userSpaceOnUse" x="-0.145508" y="-0.665527" width="9" height="9" fill="black">
<rect fill="white" x="-0.145508" y="-0.665527" width="9" height="9"/>
<path d="M4.67802 1.33447L5.63779 2.97084L7.50155 3.37162L6.23096 4.78374L6.42306 6.66781L4.67802 5.90417L2.93298 6.66781L3.12508 4.78374L1.85449 3.37162L3.71825 2.97084L4.67802 1.33447Z"/>
</mask>
<path d="M4.67802 1.33447L5.63779 2.97084L7.50155 3.37162L6.23096 4.78374L6.42306 6.66781L4.67802 5.90417L2.93298 6.66781L3.12508 4.78374L1.85449 3.37162L3.71825 2.97084L4.67802 1.33447Z" fill="#00BF72"/>
<path d="M4.67802 1.33447L5.25307 0.99719L4.67802 0.0167505L4.10297 0.99719L4.67802 1.33447ZM5.63779 2.97084L5.06274 3.30812L5.21104 3.56098L5.49763 3.62261L5.63779 2.97084ZM7.50155 3.37162L7.99713 3.81754L8.76706 2.96185L7.64171 2.71986L7.50155 3.37162ZM6.23096 4.78374L5.73538 4.33782L5.53777 4.55745L5.56773 4.85136L6.23096 4.78374ZM6.42306 6.66781L6.15579 7.27855L7.20214 7.73644L7.08629 6.60018L6.42306 6.66781ZM4.67802 5.90417L4.94529 5.29342L4.67802 5.17647L4.41075 5.29342L4.67802 5.90417ZM2.93298 6.66781L2.26976 6.60018L2.15391 7.73644L3.20025 7.27855L2.93298 6.66781ZM3.12508 4.78374L3.78831 4.85136L3.81828 4.55745L3.62066 4.33782L3.12508 4.78374ZM1.85449 3.37162L1.71434 2.71986L0.588982 2.96185L1.35891 3.81754L1.85449 3.37162ZM3.71825 2.97084L3.85841 3.62261L4.145 3.56098L4.2933 3.30812L3.71825 2.97084ZM4.10297 1.67176L5.06274 3.30812L6.21284 2.63356L5.25307 0.99719L4.10297 1.67176ZM5.49763 3.62261L7.36139 4.02339L7.64171 2.71986L5.77795 2.31907L5.49763 3.62261ZM7.00596 2.92571L5.73538 4.33782L6.72655 5.22965L7.99713 3.81754L7.00596 2.92571ZM5.56773 4.85136L5.75983 6.73543L7.08629 6.60018L6.89419 4.71612L5.56773 4.85136ZM6.69032 6.05706L4.94529 5.29342L4.41075 6.51492L6.15579 7.27855L6.69032 6.05706ZM4.41075 5.29342L2.66572 6.05706L3.20025 7.27855L4.94529 6.51492L4.41075 5.29342ZM3.59621 6.73543L3.78831 4.85136L2.46185 4.71612L2.26976 6.60018L3.59621 6.73543ZM3.62066 4.33782L2.35008 2.92571L1.35891 3.81754L2.6295 5.22965L3.62066 4.33782ZM1.99465 4.02339L3.85841 3.62261L3.57809 2.31907L1.71434 2.71986L1.99465 4.02339ZM4.2933 3.30812L5.25307 1.67176L4.10297 0.99719L3.1432 2.63356L4.2933 3.30812Z" fill="white" mask="url(#path-1-outside-1_69_1460)"/>
</svg>
