<svg width="41" height="40" viewBox="0 0 41 40" fill="none" xmlns="http://www.w3.org/2000/svg">
<rect x="1" y="0.5" width="39" height="39" rx="3.5" fill="#007646" stroke="white"/>
<path d="M25.3013 5.80078C30.272 5.80078 34.3013 9.83008 34.3013 14.8008C34.3013 19.7715 30.272 23.8008 25.3013 23.8008C20.3306 23.8008 16.3013 19.7715 16.3013 14.8008C16.3013 9.83008 20.3306 5.80078 25.3013 5.80078ZM25.3013 9.40078C25.0626 9.40078 24.8337 9.4956 24.6649 9.66439C24.4961 9.83317 24.4013 10.0621 24.4013 10.3008V14.8008C24.4013 15.0395 24.4962 15.2683 24.665 15.4371L27.365 18.1371C27.5347 18.301 27.7621 18.3917 27.998 18.3897C28.234 18.3876 28.4597 18.293 28.6266 18.1261C28.7935 17.9593 28.8881 17.7335 28.8902 17.4975C28.8922 17.2616 28.8015 17.0342 28.6376 16.8645L26.2013 14.4282V10.3008C26.2013 10.0621 26.1064 9.83317 25.9377 9.66439C25.7689 9.4956 25.54 9.40078 25.3013 9.40078Z" fill="#00BF72"/>
<g filter="url(#filter0_d_120_2112)">
<path d="M26.8047 20.2217C26.8572 20.1502 26.9348 20.0751 27.0213 20.0951C27.0535 20.1027 27.0788 20.1211 27.0981 20.1463C27.135 20.1944 27.1828 20.6088 27.184 20.6724C27.1895 20.9945 27.1391 21.2349 27.1072 21.3079C27.0752 21.3808 27.0181 21.4465 26.9422 21.4708C26.7959 21.5174 26.6444 21.3937 26.5843 21.2525C26.5181 21.0963 26.4788 20.9022 26.5374 20.7428C26.606 20.5567 26.6869 20.382 26.8047 20.2217Z" fill="#E0E0E0"/>
<path opacity="0.6" d="M27.0855 20.1331C27.0679 20.1147 27.0474 20.1003 27.021 20.0942C26.9346 20.0739 26.8569 20.149 26.8044 20.2208C26.6866 20.3814 26.6057 20.5558 26.5374 20.7419C26.4788 20.9013 26.5181 21.0954 26.5843 21.2516C26.5943 21.2756 27.0327 20.6487 27.0855 20.1331Z" fill="url(#paint0_linear_120_2112)"/>
<path d="M25.229 28.7533L21.1498 31.1085L20.209 29.6888L20.687 28.6545L22.1117 27.6885L25.229 28.7533Z" fill="#26231F"/>
<path d="M9.47665 20.3945L8.05195 21.3605L8.00887 21.454C7.73776 22.0408 7.78231 22.7249 8.12727 23.2715L8.48133 23.8325L12.5942 21.4596L9.47665 20.3945Z" fill="#26231F"/>
<path d="M23.9154 29.3361C23.5154 29.1051 23.1537 29.0858 22.894 29.2414L21.998 29.7587L24.0406 33.2535L24.9366 32.7362C25.1901 32.5844 25.3466 32.2661 25.3466 31.815C25.3466 30.9024 24.7059 29.7924 23.9154 29.3361Z" fill="#26231F"/>
<path d="M24.4512 32.3326C24.4512 33.2453 23.8105 33.6152 23.02 33.1588C22.2296 32.7025 21.5889 31.5926 21.5889 30.6799C21.5889 29.7672 22.2296 29.3973 23.02 29.8537C23.8102 30.31 24.4512 31.4199 24.4512 32.3326Z" fill="#3F3932"/>
<path d="M23.0146 32.6853C22.4701 32.384 22.0208 31.6237 22.0114 30.9874C22.002 30.3511 22.4358 30.0794 22.9803 30.3807C23.5249 30.682 23.9742 31.4423 23.9836 32.0786C23.9929 32.7152 23.5592 32.9869 23.0146 32.6853Z" fill="#D8D8D8"/>
<path d="M23.015 32.5236C22.5467 32.2645 22.1607 31.6109 22.1525 31.0637C22.1443 30.5165 22.5174 30.2832 22.9854 30.5423C23.4538 30.8014 23.8398 31.455 23.848 32.0022C23.8562 32.5494 23.4834 32.7826 23.015 32.5236Z" fill="#A8A8A8"/>
<path d="M23.0549 32.0653C22.7902 31.9187 22.5719 31.5494 22.5675 31.2402C22.5628 30.931 22.7735 30.7991 23.0382 30.9454C23.3028 31.0916 23.5212 31.4612 23.5256 31.7704C23.5303 32.0796 23.3195 32.2115 23.0549 32.0653Z" fill="#D8D8D8"/>
<path d="M23.5737 31.2274C23.4573 31.0181 23.2917 30.8352 23.1088 30.7341C22.7642 30.5433 22.4896 30.7153 22.4957 31.118C22.5016 31.5207 22.7862 32.002 23.1308 32.1928C23.4614 32.3757 23.7276 32.225 23.7434 31.8569C23.744 31.8414 23.7443 31.8253 23.744 31.8089C23.741 31.6195 23.6768 31.4129 23.5737 31.2274ZM23.5244 31.808C23.5121 32.0905 23.3081 32.2063 23.054 32.0659C22.7894 31.9193 22.571 31.5501 22.5666 31.2408C22.5619 30.9316 22.7727 30.7998 23.0373 30.946C23.1777 31.0237 23.3049 31.1638 23.394 31.3247C23.4336 31.3959 23.4658 31.4712 23.4884 31.5468C23.511 31.6224 23.5239 31.6984 23.5247 31.771C23.5253 31.7837 23.525 31.796 23.5244 31.808Z" fill="#BEBEBE"/>
<path d="M11.3598 22.0929C10.9597 21.862 10.598 21.8426 10.3384 21.9983L9.44238 22.5156L11.4849 26.0104L12.3809 25.4931C12.6344 25.3412 12.7909 25.0229 12.7909 24.5719C12.7909 23.6592 12.1502 22.5493 11.3598 22.0929Z" fill="#26231F"/>
<path d="M11.8955 25.0894C11.8955 26.0021 11.2548 26.372 10.4644 25.9157C9.6739 25.4593 9.0332 24.3494 9.0332 23.4367C9.0332 22.5241 9.6739 22.1542 10.4644 22.6105C11.2545 23.0669 11.8955 24.1768 11.8955 25.0894Z" fill="#3F3932"/>
<path d="M10.4678 25.442C9.9232 25.1407 9.47389 24.3804 9.46451 23.7441C9.45484 23.1078 9.88891 22.8362 10.4335 23.1377C10.978 23.439 11.4273 24.1993 11.4367 24.8356C11.4461 25.4719 11.0123 25.7436 10.4678 25.442Z" fill="#D8D8D8"/>
<path d="M10.4662 25.2804C9.99785 25.0213 9.61185 24.3677 9.60365 23.8205C9.59544 23.2733 9.96855 23.04 10.4366 23.2991C10.905 23.5582 11.291 24.2118 11.2992 24.759C11.3074 25.3059 10.9346 25.5395 10.4662 25.2804Z" fill="#A8A8A8"/>
<path d="M10.506 24.8221C10.2414 24.6756 10.023 24.3063 10.0186 23.9971C10.0139 23.6879 10.2247 23.556 10.4893 23.7022C10.754 23.8488 10.9723 24.2181 10.9767 24.5273C10.9814 24.8365 10.7707 24.9684 10.506 24.8221Z" fill="#D8D8D8"/>
<path d="M11.0249 23.9842C10.9085 23.7749 10.7429 23.592 10.56 23.4909C10.2153 23.3001 9.94072 23.4722 9.94688 23.8749C9.95274 24.2776 10.2373 24.7588 10.582 24.9496C10.9126 25.1325 11.1787 24.9819 11.1946 24.6137C11.1951 24.5982 11.1954 24.5821 11.1951 24.5657C11.1925 24.3763 11.128 24.1697 11.0249 23.9842ZM10.9756 24.5648C10.9633 24.8473 10.7593 24.9631 10.5052 24.8227C10.2406 24.6762 10.0222 24.3069 10.0178 23.9977C10.0131 23.6885 10.2238 23.5566 10.4885 23.7028C10.6289 23.7805 10.7561 23.9206 10.8452 24.0815C10.8848 24.1527 10.917 24.228 10.9396 24.3037C10.9621 24.3793 10.975 24.4552 10.9762 24.5279C10.9765 24.5405 10.9762 24.5528 10.9756 24.5648Z" fill="#BEBEBE"/>
<path d="M32.7142 25.8912C32.259 25.1883 31.4044 24.4117 30.7077 23.9468C28.737 22.6314 27.9137 21.9022 26.1264 20.3794C25.5054 19.85 24.3799 18.7741 23.7249 18.2879C23.4467 18.0815 19.6228 15.7995 17.9973 15.1586C17.9973 15.1861 14.2303 15.4297 14.2303 15.4297L12.8882 15.0237C12.8882 15.0237 12.6611 14.9276 12.3088 15.1222C11.4919 15.5742 8.11878 17.539 7.26618 18.0361C7.12081 18.1208 6.99478 18.2348 6.90334 18.3761C6.85381 18.4523 6.80779 18.5355 6.78933 18.6038C6.72338 18.8488 6.61816 19.115 6.61816 19.3207V21.775C6.61816 21.9691 6.66711 22.1593 6.76325 22.3278C6.92239 22.6071 8.12464 23.5652 8.48455 23.8331C8.49071 22.3867 8.95818 21.4855 10.3524 22.2906C11.6728 23.0529 12.2208 24.5553 12.2208 26.0184L21.1504 31.1087C21.1641 29.684 21.6351 28.8045 23.0176 29.6028C24.3061 30.3467 24.8576 31.7954 24.8834 33.2245C25.3761 33.5003 25.1296 33.3485 25.297 33.4341C25.7648 33.6715 26.27 33.8057 26.7838 33.8104C28.5596 33.8265 29.9545 33.0865 31.2476 32.243C32.1928 31.6266 32.9246 30.9985 33.2831 30.434C33.4396 30.1876 33.5055 29.8953 33.4997 29.6034C33.4844 28.8282 33.4783 27.0711 32.7142 25.8912Z" fill="#E8E8E8"/>
<path opacity="0.2" d="M8.58303 22.8679C8.5165 23.1434 8.48602 23.4711 8.48456 23.8331C8.12494 23.5652 6.92239 22.6071 6.76325 22.3278C6.66741 22.1593 6.61816 21.969 6.61816 21.775V21.7334L8.58303 22.8679ZM12.1095 24.904C12.1845 25.2695 12.2208 25.6452 12.2208 26.0184L21.1504 31.1087C21.1539 30.7611 21.185 30.4469 21.2491 30.1808L12.1095 24.904Z" fill="url(#paint1_linear_120_2112)"/>
<path d="M31.2081 30.6236C33.2334 29.368 33.4204 28.1332 33.4072 28.0309C33.3143 27.3108 33.1226 26.5192 32.7155 25.8908C32.2603 25.188 31.4057 24.4113 30.709 23.9465C28.7383 22.6311 27.915 21.9019 26.1277 20.379C25.5067 19.8497 24.3812 18.7737 23.7262 18.2875C23.448 18.0812 18.5412 15.3036 17.9986 15.1582C17.3454 15.3637 14.5103 16.8613 12.6814 18.0393C12.5689 18.1117 12.5865 18.2816 12.711 18.3303C14.3339 18.9607 17.8366 20.9816 18.4134 21.6818C19.1238 22.5437 21.5321 26.351 21.5321 26.351C22.3624 27.1965 24.2675 28.8531 25.128 29.6661C26.0914 30.6295 26.0331 30.9911 26.1187 31.7397C26.133 31.8645 26.2268 31.9695 26.3508 31.99C27.7424 32.2186 29.3051 31.8742 31.2081 30.6236Z" fill="#E0E0E0"/>
<path d="M17.9975 15.1582C17.3442 15.3637 14.5091 16.8613 12.6803 18.0393C12.5677 18.1117 12.5888 18.2729 12.7099 18.33C14.0932 18.9836 16.7149 20.4227 17.9286 21.275C18.0482 21.3588 19.8844 20.6331 21.3422 19.7952C22.6318 19.0539 23.5805 18.1934 23.5336 18.1618C22.6919 17.5964 18.6757 15.2309 17.9975 15.1582Z" fill="#EBEBEB"/>
<path opacity="0.6" d="M26.2905 30.1121C29.9081 30.3881 33.2394 27.3268 32.8519 26.1275C32.8085 26.0466 32.7625 25.9678 32.713 25.8913C32.2578 25.1885 31.4032 24.4118 30.7065 23.9469C29.7932 23.3373 29.1267 22.8534 28.496 22.3584C25.9971 25.7011 21.5293 26.3511 21.5293 26.3511C22.1577 26.991 24.1187 28.7518 25.0364 29.5713C25.3849 29.8829 25.8245 30.0766 26.2905 30.1121Z" fill="url(#paint2_linear_120_2112)"/>
<path opacity="0.2" d="M11.7463 19.8157C11.7302 19.8107 11.7161 19.8213 11.7088 19.8362C11.4292 20.418 11.5033 22.5452 11.438 23.2841C11.4576 23.3128 11.4951 23.3691 11.4951 23.3691C11.5587 22.6478 11.5236 20.3943 11.7668 19.8526C11.7739 19.8377 11.7624 19.8201 11.7463 19.8157Z" fill="#4B4B4B"/>
<path opacity="0.2" d="M22.1636 27.7515L20.7339 25.5879C20.7172 25.5993 20.6996 25.6093 20.6812 25.6175L22.1079 27.7773V29.3028C22.1278 29.3025 22.1475 29.3022 22.1683 29.3034V27.7682C22.1686 27.7623 22.1668 27.7564 22.1636 27.7515Z" fill="#4B4B4B"/>
<path opacity="0.2" d="M16.2173 23.1543C16.1982 23.1435 16.1789 23.1329 16.1598 23.1221C16.0452 24.3261 15.9415 25.9108 15.9394 27.7162L12.2017 25.5585C12.2037 25.5828 12.2052 25.6069 12.2069 25.6312L15.9544 27.7948L21.1625 30.8016C21.164 30.779 21.1661 30.7573 21.1678 30.735L15.9995 27.7511C16.0004 25.9466 16.1033 24.3607 16.2173 23.1543Z" fill="#4B4B4B"/>
<path d="M23.1094 26.0376C24.9146 25.5446 26.6652 24.4279 28.1547 23.017C28.3238 22.8567 28.3147 22.5835 28.1383 22.4311L23.5634 18.4756C22.5151 19.4313 20.799 20.3818 18.6226 21.3282C19.7087 23.1814 20.9863 24.9455 21.9699 25.8066C22.3424 26.1328 22.6669 26.1583 23.1094 26.0376Z" fill="#282523"/>
<path d="M22.2402 25.3236C22.1904 25.3236 22.1406 25.3206 22.0913 25.3151C21.7437 25.2755 21.4659 25.022 21.2475 24.7485C20.6892 24.0489 19.501 22.5298 18.9984 21.6863C18.9453 21.5975 18.9849 21.4835 19.0795 21.4413C21.1104 20.5403 22.5767 19.7001 23.5436 18.8826C23.6204 18.8179 23.7306 18.8176 23.8071 18.8829L27.3737 21.9841C27.4337 22.036 27.4695 22.1116 27.4713 22.191C27.473 22.2699 27.4428 22.3428 27.3866 22.3965C25.7983 23.9009 24.2725 24.8165 22.5849 25.277C22.4729 25.308 22.3569 25.3236 22.2402 25.3236Z" fill="#35312D"/>
<path d="M18.4478 22.1207C18.2069 21.7556 17.8869 21.451 17.5088 21.2312C16.0398 20.3783 14.2326 19.3001 13.033 18.7171C12.9035 18.6544 12.7593 18.6368 12.6192 18.6693C11.8381 18.8499 9.92248 19.8033 10.3099 20.0269C11.5298 20.7312 19.5109 25.2911 20.7319 25.9564C20.8069 25.9971 20.9048 25.9162 20.8611 25.843C20.5126 25.258 19.1193 23.1386 18.4478 22.1207Z" fill="#282523"/>
<path d="M12.0592 18.9746C11.3505 19.2736 10.4677 19.7525 10.4639 19.9266C10.6737 20.0479 11.0442 20.2604 11.5222 20.5341C11.5688 20.2624 11.7033 19.6748 12.0592 18.9746Z" fill="#35312D"/>
<path d="M11.6494 20.6084C12.7971 21.2655 14.4982 22.2371 16.1287 23.1656C16.1744 22.7573 16.313 21.7678 16.6565 20.8323C15.3807 20.0876 13.9528 19.2555 12.9654 18.7804C12.8734 18.7361 12.7722 18.7268 12.6735 18.7523C12.5606 18.7816 12.4164 18.8311 12.2573 18.8932C11.83 19.6866 11.689 20.3628 11.6494 20.6084Z" fill="#35312D"/>
<path d="M18.3802 22.1662C18.1466 21.8122 17.8315 21.5135 17.469 21.3031L16.7828 20.9033C16.4323 21.8685 16.3013 22.8884 16.2646 23.2404C18.2779 24.3867 20.1528 25.4494 20.6929 25.7437C20.6938 25.7443 20.7102 25.746 20.7102 25.746C20.355 25.1505 18.9869 23.0862 18.3802 22.1662Z" fill="#35312D"/>
<path d="M29.2298 30.1519C29.3157 30.4335 29.6047 31.0977 29.7923 31.0578C30.6299 30.8796 32.3031 29.6577 32.5464 29.1894C32.6314 29.0255 32.314 28.0026 32.2152 27.9766C31.8409 28.403 31.2967 28.8913 30.7117 29.2559C29.9576 29.7254 29.1926 30.0294 29.2298 30.1519Z" fill="#E7E7E7"/>
<path d="M30.7128 29.2564C30.2855 29.5225 29.8491 29.7238 29.5613 29.8707C29.3409 29.9829 29.2075 30.0539 29.2312 30.1523C29.2881 30.3897 29.5126 30.8763 29.6893 31.0167C30.5311 30.8291 32.1882 29.618 32.4303 29.152C32.5009 29.016 32.2943 28.2895 32.1656 28.0312C31.7931 28.4448 31.2738 28.907 30.7128 29.2564Z" fill="#35312D"/>
<path d="M23.8325 26.293C24.8091 27.6892 26.6412 28.7007 28.1591 29.2458C26.7136 28.7022 24.9237 27.4011 23.8325 26.293Z" fill="#E0E0E0"/>
<g opacity="0.6">
<path d="M28.3984 23.6045C29.5359 24.3785 31.2464 25.8616 31.8331 27.0826C31.6195 26.181 30.1576 24.5377 28.3984 23.6045Z" fill="url(#paint3_linear_120_2112)"/>
</g>
<path d="M17.3321 24.8957L16.5586 24.4491C16.515 24.4239 16.4795 24.3679 16.4795 24.3242V24.2146C16.4795 24.1709 16.515 24.156 16.5586 24.1812L17.3321 24.6279C17.3758 24.6531 17.4112 24.709 17.4112 24.7527V24.8623C17.4112 24.906 17.3758 24.9209 17.3321 24.8957Z" fill="#E0E0E0"/>
<path d="M12.7042 22.2258L11.9307 21.7792C11.887 21.7539 11.8516 21.698 11.8516 21.6543V21.5447C11.8516 21.501 11.887 21.4861 11.9307 21.5113L12.7042 21.9579C12.7478 21.9831 12.7833 22.0391 12.7833 22.0828V22.1924C12.7833 22.2361 12.7478 22.251 12.7042 22.2258Z" fill="#E0E0E0"/>
<path d="M18.425 25.0271C18.3005 25.1719 18.4186 25.62 18.622 25.7135C18.6613 25.7314 18.7049 25.7364 18.7477 25.741C19.1683 25.7871 19.7439 25.7935 19.9482 25.5599C20.0098 25.4896 20.0033 25.4453 19.9761 25.36C19.9356 25.2334 19.7923 24.6974 19.6821 24.6387C19.5863 24.588 18.4989 24.9409 18.425 25.0271Z" fill="#E0E0E0"/>
<path opacity="0.6" d="M19.8582 24.9856C19.8028 24.8247 19.7381 24.6697 19.6818 24.6398C19.5859 24.5888 18.4989 24.9419 18.4247 25.0281C18.3998 25.0571 18.3852 25.0985 18.3784 25.1462C18.935 25.2271 19.5733 25.1269 19.8582 24.9856Z" fill="url(#paint4_linear_120_2112)"/>
<path d="M20.4163 25.3845C20.3791 25.3801 20.0169 25.2936 19.953 25.2848C19.739 25.2555 19.4407 25.6365 19.5292 25.742C19.5526 25.7699 20.4776 25.8294 20.5066 25.8314C20.6555 25.8426 20.6156 25.4082 20.4163 25.3845Z" fill="#282523"/>
<path d="M7.44184 21.6487L7.16927 21.4914C7.12941 21.4685 7.09717 21.4175 7.09717 21.3776V21.3463C7.09717 21.3064 7.12941 21.2929 7.16927 21.3158L7.44184 21.4732C7.4817 21.4963 7.51394 21.547 7.51394 21.5869V21.6183C7.51394 21.6581 7.4817 21.6716 7.44184 21.6487Z" fill="#333333"/>
<path d="M20.8237 29.3753L20.5511 29.2179C20.5112 29.1951 20.479 29.1441 20.479 29.1042V29.0728C20.479 29.033 20.5112 29.0195 20.5511 29.0424L20.8237 29.1998C20.8635 29.2226 20.8958 29.2736 20.8958 29.3135V29.3448C20.8961 29.3847 20.8635 29.3985 20.8237 29.3753Z" fill="#333333"/>
<path d="M6.66537 19.0137C6.66537 19.0137 6.32393 19.6702 6.62229 20.5503C6.8298 20.5972 6.90541 19.7092 6.9271 19.3572C6.93237 19.2701 6.89076 19.1872 6.81836 19.1388L6.66537 19.0137Z" fill="#991111"/>
<path d="M28.5022 30.3734C28.8313 30.3326 29.2185 31.2491 28.8592 31.4528C28.508 31.6518 27.593 31.8825 26.3512 31.7439C25.8192 31.571 25.6973 30.5003 26.2592 30.4481C26.6513 30.4698 27.2504 30.5281 28.5022 30.3734Z" fill="#F0FDFF"/>
<path d="M26.2568 30.4485C25.4007 30.4016 25.7595 31.6783 26.3489 31.7443C26.1595 31.5066 25.9986 30.6883 26.2568 30.4485Z" fill="#333333"/>
<path d="M32.6515 27.6116C32.609 27.8548 32.8042 28.6239 32.8968 28.6632C33.0105 28.7115 33.3634 28.0521 33.3605 27.715C33.3578 27.4243 33.206 26.7429 33.0313 26.5049C32.9103 27.0389 32.677 27.4647 32.6515 27.6116Z" fill="#F0FDFF"/>
<path d="M30.8307 29.7646C30.8972 29.9173 31.059 29.9788 31.1924 29.9017C31.3257 29.8247 31.3796 29.6385 31.3134 29.4858C31.2469 29.3331 31.0851 29.2716 30.9517 29.3487C30.8184 29.4255 30.7641 29.6119 30.8307 29.7646Z" fill="#4C4742"/>
<path d="M32.3011 30.4482L30.4688 31.6772V32.3357L32.3011 31.1071V30.4482Z" fill="white"/>
<path d="M13.9954 15.688L9.06097 18.5369C8.75411 18.7493 9.49357 18.626 10.3558 18.4964C11.0982 18.3847 11.9066 18.2367 11.9066 18.2367C12.066 18.2086 12.4596 18.0067 12.5985 17.9234C14.3635 16.8662 16.093 15.8829 17.3006 15.3486L14.5151 15.5491C14.3328 15.5491 14.1534 15.5969 13.9954 15.688Z" fill="#282523"/>
<path d="M26.6037 33.4558C27.4425 33.554 28.1699 33.394 28.4874 33.2718C28.6228 33.2196 28.5823 33.0508 28.5724 32.9016C28.568 32.8351 28.5126 32.785 28.446 32.7882C28.1342 32.8028 27.5298 32.8506 26.6368 32.5607C26.5471 32.5317 26.4548 32.5959 26.4551 32.69L26.456 33.2732C26.456 33.3615 26.5163 33.4456 26.6037 33.4558Z" fill="#35312D"/>
<path d="M33.4563 28.5732C33.4513 28.6875 33.4279 28.9208 33.3326 29.3238C33.3139 29.4027 33.3033 29.4845 33.3027 29.5656C33.3019 29.6706 33.3024 29.9062 33.3024 30.0284C33.3024 30.075 33.325 30.0712 33.3359 30.0528C33.4112 29.9238 33.4701 29.7526 33.495 29.6348C33.495 29.6243 33.4965 29.614 33.4965 29.6034C33.4912 29.3482 33.4868 28.9856 33.4563 28.5732Z" fill="#35312D"/>
</g>
<defs>
<filter id="filter0_d_120_2112" x="3.56912" y="13.2415" width="32.8618" height="24.6723" filterUnits="userSpaceOnUse" color-interpolation-filters="sRGB">
<feFlood flood-opacity="0" result="BackgroundImageFix"/>
<feColorMatrix in="SourceAlpha" type="matrix" values="0 0 0 0 0 0 0 0 0 0 0 0 0 0 0 0 0 0 127 0" result="hardAlpha"/>
<feOffset dy="1.17235"/>
<feGaussianBlur stdDeviation="1.46544"/>
<feComposite in2="hardAlpha" operator="out"/>
<feColorMatrix type="matrix" values="0 0 0 0 0 0 0 0 0 0 0 0 0 0 0 0 0 0 0.25 0"/>
<feBlend mode="normal" in2="BackgroundImageFix" result="effect1_dropShadow_120_2112"/>
<feBlend mode="normal" in="SourceGraphic" in2="effect1_dropShadow_120_2112" result="shape"/>
</filter>
<linearGradient id="paint0_linear_120_2112" x1="26.5087" y1="20.6716" x2="27.0855" y2="20.6716" gradientUnits="userSpaceOnUse">
<stop stop-color="#414141"/>
<stop offset="0.1443" stop-color="#F6F6F6"/>
<stop offset="0.4096" stop-color="#E4E4E4"/>
<stop offset="0.6501" stop-color="#E0E0E0"/>
<stop offset="0.8549" stop-color="#BFBFBF"/>
<stop offset="1" stop-color="#C2C2C2"/>
</linearGradient>
<linearGradient id="paint1_linear_120_2112" x1="14.0975" y1="26.0517" x2="13.6428" y2="26.8393" gradientUnits="userSpaceOnUse">
<stop stop-color="white"/>
<stop offset="0.2436" stop-color="#ECECEC"/>
<stop offset="0.4856" stop-color="#D5D5D5"/>
<stop offset="0.7001" stop-color="#BCBCBC"/>
<stop offset="0.8788" stop-color="#9D9D9D"/>
<stop offset="1" stop-color="#666666"/>
</linearGradient>
<linearGradient id="paint2_linear_120_2112" x1="26.0624" y1="25.0054" x2="30.2978" y2="29.1291" gradientUnits="userSpaceOnUse">
<stop stop-color="#E0E0E0"/>
<stop offset="1" stop-color="#F4F4F4"/>
</linearGradient>
<linearGradient id="paint3_linear_120_2112" x1="28.3984" y1="25.3435" x2="31.8331" y2="25.3435" gradientUnits="userSpaceOnUse">
<stop offset="0.033" stop-color="#A1A1A1"/>
<stop offset="0.4258" stop-color="#C2C2C2"/>
<stop offset="0.7619" stop-color="#EBEBEB"/>
<stop offset="1" stop-color="#2C0000"/>
</linearGradient>
<linearGradient id="paint4_linear_120_2112" x1="18.3785" y1="24.9048" x2="19.8582" y2="24.9048" gradientUnits="userSpaceOnUse">
<stop stop-color="#696969"/>
<stop offset="0.1443" stop-color="#969696"/>
<stop offset="0.4096" stop-color="#B3B3B3"/>
<stop offset="0.6501" stop-color="#C9C9C9"/>
<stop offset="0.8549" stop-color="#E1E1E1"/>
<stop offset="1" stop-color="#FBFBFB"/>
</linearGradient>
</defs>
</svg>
