<svg width="41" height="40" viewBox="0 0 41 40" fill="none" xmlns="http://www.w3.org/2000/svg">
<rect x="0.856934" y="0.5" width="39" height="39" rx="3.5" fill="#007646" stroke="white"/>
<path d="M12.0234 24.1668H15.1484V30.4168H12.0234V24.1668ZM27.6484 9.98975C27.5651 11.521 27.1797 12.8439 26.4609 13.9689C25.7422 15.0939 24.7526 15.8335 23.4818 16.2397V30.4168H21.3984V24.1668H19.3151V30.4168H17.2318V18.0002C16.9401 18.0939 16.7109 18.2085 16.5964 18.3439C15.6172 19.1252 15.1484 20.1981 15.1484 21.5627V22.0835H13.0651V21.5627C13.0651 19.5106 13.8151 17.8543 15.2839 16.5835C16.7422 15.3752 18.4401 14.7918 20.3568 14.7918C21.8255 14.7918 23.0234 14.4168 23.9714 13.6981C25.0443 12.8231 25.5651 11.6147 25.5651 10.1043V9.5835H27.6484V9.98975ZM20.3568 9.5835C20.9093 9.5835 21.4392 9.80299 21.8299 10.1937C22.2206 10.5844 22.4401 11.1143 22.4401 11.6668C22.4401 12.2194 22.2206 12.7493 21.8299 13.14C21.4392 13.5307 20.9093 13.7502 20.3568 13.7502C19.8042 13.7502 19.2743 13.5307 18.8836 13.14C18.4929 12.7493 18.2734 12.2194 18.2734 11.6668C18.2734 11.1143 18.4929 10.5844 18.8836 10.1937C19.2743 9.80299 19.8042 9.5835 20.3568 9.5835Z" fill="#B0FFDF"/>
</svg>
