<svg width="52" height="52" viewBox="0 0 52 52" fill="none" xmlns="http://www.w3.org/2000/svg">
<rect width="52" height="52" rx="26" fill="#586761"/>
<g clip-path="url(#clip0_176_1229)">
<path d="M25.2546 16.8189C25.0077 16.8197 24.7346 16.9305 24.4854 17.1789L20.0862 22.1551H16.7692C16.3454 22.1551 16 22.5005 16 22.9243V29.0782C16 29.502 16.3454 29.8474 16.7692 29.8474H20.0869L24.4615 34.7997C25.2308 35.5689 26 35.1751 26 34.1266V17.7551C26 17.1466 25.6669 16.8151 25.2546 16.8174V16.8189ZM30.8315 18.3574C30.6679 18.3859 30.518 18.4667 30.404 18.5875C30.2901 18.7083 30.2184 18.8628 30.1995 19.0278C30.1806 19.1928 30.2156 19.3594 30.2993 19.5029C30.383 19.6463 30.5109 19.7588 30.6638 19.8235C31.8084 20.3987 32.77 21.2814 33.4408 22.3726C34.1116 23.4638 34.4651 24.7203 34.4615 26.0012C34.4615 28.712 32.9231 31.0397 30.6631 32.1789C30.5602 32.2147 30.4662 32.2719 30.3871 32.3468C30.308 32.4216 30.2457 32.5124 30.2043 32.6132C30.1629 32.7139 30.1434 32.8223 30.1471 32.9311C30.1507 33.0399 30.1774 33.1467 30.2254 33.2445C30.2734 33.3422 30.3416 33.4287 30.4255 33.4981C30.5094 33.5675 30.607 33.6183 30.712 33.6472C30.817 33.676 30.927 33.6823 31.0346 33.6655C31.1422 33.6487 31.245 33.6092 31.3362 33.5497C34.1 32.1551 36 29.2997 36 26.0012C36 22.7028 34.0992 19.8474 31.3362 18.4528C31.2045 18.3793 31.0542 18.3461 30.9038 18.3574C30.8798 18.3563 30.8556 18.3563 30.8315 18.3574ZM29.0046 21.3374C28.839 21.3496 28.6817 21.415 28.5564 21.5239C28.431 21.6329 28.3443 21.7795 28.3091 21.9418C28.274 22.1041 28.2923 22.2734 28.3614 22.4244C28.4305 22.5755 28.5465 22.7001 28.6923 22.7797C29.8792 23.5174 30.6154 24.6859 30.6154 26.0012C30.6154 27.3259 29.8677 28.5097 28.6685 29.2466C28.5742 29.2958 28.4912 29.3639 28.4247 29.4467C28.3581 29.5296 28.3094 29.6253 28.2817 29.7279C28.2539 29.8304 28.2478 29.9377 28.2635 30.0427C28.2793 30.1478 28.3167 30.2485 28.3733 30.3384C28.4299 30.4284 28.5045 30.5056 28.5925 30.5652C28.6804 30.6249 28.7797 30.6657 28.8842 30.685C28.9887 30.7044 29.0961 30.7018 29.1995 30.6776C29.303 30.6534 29.4003 30.608 29.4854 30.5443C31.0777 29.5674 32.1538 27.9059 32.1538 26.0012C32.1538 24.1082 31.0869 22.4374 29.5092 21.4582C29.3803 21.3758 29.2298 21.3338 29.0769 21.3374C29.0528 21.3363 29.0287 21.3363 29.0046 21.3374Z" fill="white"/>
</g>
<defs>
<clipPath id="clip0_176_1229">
<rect width="20" height="20" fill="white" transform="translate(16 16)"/>
</clipPath>
</defs>
</svg>
